<?xml version="1.0" encoding="utf-8"?>
<svg xmlns="http://www.w3.org/2000/svg" xmlns:xlink="http://www.w3.org/1999/xlink" width="600" height="400" viewBox="0 0 2400 1600">
<defs>
  <clipPath id="clip310">
    <rect x="0" y="0" width="2400" height="1600"/>
  </clipPath>
</defs>
<path clip-path="url(#clip310)" d="
M0 1600 L2400 1600 L2400 0 L0 0  Z
  " fill="#ffffff" fill-rule="evenodd" fill-opacity="1"/>
<defs>
  <clipPath id="clip311">
    <rect x="480" y="0" width="1681" height="1600"/>
  </clipPath>
</defs>
<defs>
  <clipPath id="clip312">
    <rect x="239" y="123" width="2114" height="1320"/>
  </clipPath>
</defs>
<path clip-path="url(#clip310)" d="
M194.758 1442.95 L2352.76 1442.95 L2352.76 123.472 L194.758 123.472  Z
  " fill="#ffffff" fill-rule="evenodd" fill-opacity="1"/>
<defs>
  <clipPath id="clip313">
    <rect x="194" y="123" width="2159" height="1320"/>
  </clipPath>
</defs>
<polyline clip-path="url(#clip313)" style="stroke:#000000; stroke-linecap:butt; stroke-linejoin:round; stroke-width:2; stroke-opacity:0.1; fill:none" points="
  254.801,1442.95 254.801,123.472 
  "/>
<polyline clip-path="url(#clip313)" style="stroke:#000000; stroke-linecap:butt; stroke-linejoin:round; stroke-width:2; stroke-opacity:0.1; fill:none" points="
  770.728,1442.95 770.728,123.472 
  "/>
<polyline clip-path="url(#clip313)" style="stroke:#000000; stroke-linecap:butt; stroke-linejoin:round; stroke-width:2; stroke-opacity:0.1; fill:none" points="
  1286.65,1442.95 1286.65,123.472 
  "/>
<polyline clip-path="url(#clip313)" style="stroke:#000000; stroke-linecap:butt; stroke-linejoin:round; stroke-width:2; stroke-opacity:0.1; fill:none" points="
  1802.58,1442.95 1802.58,123.472 
  "/>
<polyline clip-path="url(#clip313)" style="stroke:#000000; stroke-linecap:butt; stroke-linejoin:round; stroke-width:2; stroke-opacity:0.1; fill:none" points="
  2318.51,1442.95 2318.51,123.472 
  "/>
<polyline clip-path="url(#clip310)" style="stroke:#000000; stroke-linecap:butt; stroke-linejoin:round; stroke-width:4; stroke-opacity:1; fill:none" points="
  194.758,1442.95 2352.76,1442.95 
  "/>
<polyline clip-path="url(#clip310)" style="stroke:#000000; stroke-linecap:butt; stroke-linejoin:round; stroke-width:4; stroke-opacity:1; fill:none" points="
  254.801,1442.95 254.801,1427.12 
  "/>
<polyline clip-path="url(#clip310)" style="stroke:#000000; stroke-linecap:butt; stroke-linejoin:round; stroke-width:4; stroke-opacity:1; fill:none" points="
  770.728,1442.95 770.728,1427.12 
  "/>
<polyline clip-path="url(#clip310)" style="stroke:#000000; stroke-linecap:butt; stroke-linejoin:round; stroke-width:4; stroke-opacity:1; fill:none" points="
  1286.65,1442.95 1286.65,1427.12 
  "/>
<polyline clip-path="url(#clip310)" style="stroke:#000000; stroke-linecap:butt; stroke-linejoin:round; stroke-width:4; stroke-opacity:1; fill:none" points="
  1802.58,1442.95 1802.58,1427.12 
  "/>
<polyline clip-path="url(#clip310)" style="stroke:#000000; stroke-linecap:butt; stroke-linejoin:round; stroke-width:4; stroke-opacity:1; fill:none" points="
  2318.51,1442.95 2318.51,1427.12 
  "/>
<path clip-path="url(#clip310)" d="M254.801 1472.14 Q251.19 1472.14 249.361 1475.71 Q247.556 1479.25 247.556 1486.38 Q247.556 1493.48 249.361 1497.05 Q251.19 1500.59 254.801 1500.59 Q258.435 1500.59 260.241 1497.05 Q262.07 1493.48 262.07 1486.38 Q262.07 1479.25 260.241 1475.71 Q258.435 1472.14 254.801 1472.14 M254.801 1468.44 Q260.611 1468.44 263.667 1473.04 Q266.746 1477.63 266.746 1486.38 Q266.746 1495.1 263.667 1499.71 Q260.611 1504.29 254.801 1504.29 Q248.991 1504.29 245.912 1499.71 Q242.857 1495.1 242.857 1486.38 Q242.857 1477.63 245.912 1473.04 Q248.991 1468.44 254.801 1468.44 Z" fill="#000000" fill-rule="evenodd" fill-opacity="1" /><path clip-path="url(#clip310)" d="M730.346 1469.06 L748.703 1469.06 L748.703 1473 L734.629 1473 L734.629 1481.47 Q735.647 1481.12 736.666 1480.96 Q737.684 1480.77 738.703 1480.77 Q744.49 1480.77 747.869 1483.95 Q751.249 1487.12 751.249 1492.53 Q751.249 1498.11 747.777 1501.21 Q744.305 1504.29 737.985 1504.29 Q735.809 1504.29 733.541 1503.92 Q731.295 1503.55 728.888 1502.81 L728.888 1498.11 Q730.971 1499.25 733.194 1499.8 Q735.416 1500.36 737.893 1500.36 Q741.897 1500.36 744.235 1498.25 Q746.573 1496.15 746.573 1492.53 Q746.573 1488.92 744.235 1486.82 Q741.897 1484.71 737.893 1484.71 Q736.018 1484.71 734.143 1485.13 Q732.291 1485.54 730.346 1486.42 L730.346 1469.06 Z" fill="#000000" fill-rule="evenodd" fill-opacity="1" /><path clip-path="url(#clip310)" d="M770.462 1472.14 Q766.851 1472.14 765.022 1475.71 Q763.217 1479.25 763.217 1486.38 Q763.217 1493.48 765.022 1497.05 Q766.851 1500.59 770.462 1500.59 Q774.096 1500.59 775.902 1497.05 Q777.73 1493.48 777.73 1486.38 Q777.73 1479.25 775.902 1475.71 Q774.096 1472.14 770.462 1472.14 M770.462 1468.44 Q776.272 1468.44 779.328 1473.04 Q782.406 1477.63 782.406 1486.38 Q782.406 1495.1 779.328 1499.71 Q776.272 1504.29 770.462 1504.29 Q764.652 1504.29 761.573 1499.71 Q758.517 1495.1 758.517 1486.38 Q758.517 1477.63 761.573 1473.04 Q764.652 1468.44 770.462 1468.44 Z" fill="#000000" fill-rule="evenodd" fill-opacity="1" /><path clip-path="url(#clip310)" d="M800.624 1472.14 Q797.013 1472.14 795.184 1475.71 Q793.378 1479.25 793.378 1486.38 Q793.378 1493.48 795.184 1497.05 Q797.013 1500.59 800.624 1500.59 Q804.258 1500.59 806.064 1497.05 Q807.892 1493.48 807.892 1486.38 Q807.892 1479.25 806.064 1475.71 Q804.258 1472.14 800.624 1472.14 M800.624 1468.44 Q806.434 1468.44 809.489 1473.04 Q812.568 1477.63 812.568 1486.38 Q812.568 1495.1 809.489 1499.71 Q806.434 1504.29 800.624 1504.29 Q794.814 1504.29 791.735 1499.71 Q788.679 1495.1 788.679 1486.38 Q788.679 1477.63 791.735 1473.04 Q794.814 1468.44 800.624 1468.44 Z" fill="#000000" fill-rule="evenodd" fill-opacity="1" /><path clip-path="url(#clip310)" d="M1231.18 1499.69 L1238.82 1499.69 L1238.82 1473.32 L1230.51 1474.99 L1230.51 1470.73 L1238.77 1469.06 L1243.45 1469.06 L1243.45 1499.69 L1251.09 1499.69 L1251.09 1503.62 L1231.18 1503.62 L1231.18 1499.69 Z" fill="#000000" fill-rule="evenodd" fill-opacity="1" /><path clip-path="url(#clip310)" d="M1270.53 1472.14 Q1266.92 1472.14 1265.09 1475.71 Q1263.29 1479.25 1263.29 1486.38 Q1263.29 1493.48 1265.09 1497.05 Q1266.92 1500.59 1270.53 1500.59 Q1274.17 1500.59 1275.97 1497.05 Q1277.8 1493.48 1277.8 1486.38 Q1277.8 1479.25 1275.97 1475.71 Q1274.17 1472.14 1270.53 1472.14 M1270.53 1468.44 Q1276.34 1468.44 1279.4 1473.04 Q1282.48 1477.63 1282.48 1486.38 Q1282.48 1495.1 1279.4 1499.71 Q1276.34 1504.29 1270.53 1504.29 Q1264.72 1504.29 1261.64 1499.71 Q1258.59 1495.1 1258.59 1486.38 Q1258.59 1477.63 1261.64 1473.04 Q1264.72 1468.44 1270.53 1468.44 Z" fill="#000000" fill-rule="evenodd" fill-opacity="1" /><path clip-path="url(#clip310)" d="M1300.69 1472.14 Q1297.08 1472.14 1295.25 1475.71 Q1293.45 1479.25 1293.45 1486.38 Q1293.45 1493.48 1295.25 1497.05 Q1297.08 1500.59 1300.69 1500.59 Q1304.33 1500.59 1306.13 1497.05 Q1307.96 1493.48 1307.96 1486.38 Q1307.96 1479.25 1306.13 1475.71 Q1304.33 1472.14 1300.69 1472.14 M1300.69 1468.44 Q1306.5 1468.44 1309.56 1473.04 Q1312.64 1477.63 1312.64 1486.38 Q1312.64 1495.1 1309.56 1499.71 Q1306.5 1504.29 1300.69 1504.29 Q1294.88 1504.29 1291.81 1499.71 Q1288.75 1495.1 1288.75 1486.38 Q1288.75 1477.63 1291.81 1473.04 Q1294.88 1468.44 1300.69 1468.44 Z" fill="#000000" fill-rule="evenodd" fill-opacity="1" /><path clip-path="url(#clip310)" d="M1330.86 1472.14 Q1327.24 1472.14 1325.42 1475.71 Q1323.61 1479.25 1323.61 1486.38 Q1323.61 1493.48 1325.42 1497.05 Q1327.24 1500.59 1330.86 1500.59 Q1334.49 1500.59 1336.3 1497.05 Q1338.12 1493.48 1338.12 1486.38 Q1338.12 1479.25 1336.3 1475.71 Q1334.49 1472.14 1330.86 1472.14 M1330.86 1468.44 Q1336.67 1468.44 1339.72 1473.04 Q1342.8 1477.63 1342.8 1486.38 Q1342.8 1495.1 1339.72 1499.71 Q1336.67 1504.29 1330.86 1504.29 Q1325.05 1504.29 1321.97 1499.71 Q1318.91 1495.1 1318.91 1486.38 Q1318.91 1477.63 1321.97 1473.04 Q1325.05 1468.44 1330.86 1468.44 Z" fill="#000000" fill-rule="evenodd" fill-opacity="1" /><path clip-path="url(#clip310)" d="M1747.11 1499.69 L1754.75 1499.69 L1754.75 1473.32 L1746.44 1474.99 L1746.44 1470.73 L1754.7 1469.06 L1759.38 1469.06 L1759.38 1499.69 L1767.01 1499.69 L1767.01 1503.62 L1747.11 1503.62 L1747.11 1499.69 Z" fill="#000000" fill-rule="evenodd" fill-opacity="1" /><path clip-path="url(#clip310)" d="M1776.51 1469.06 L1794.86 1469.06 L1794.86 1473 L1780.79 1473 L1780.79 1481.47 Q1781.81 1481.12 1782.82 1480.96 Q1783.84 1480.77 1784.86 1480.77 Q1790.65 1480.77 1794.03 1483.95 Q1797.41 1487.12 1797.41 1492.53 Q1797.41 1498.11 1793.94 1501.21 Q1790.46 1504.29 1784.14 1504.29 Q1781.97 1504.29 1779.7 1503.92 Q1777.45 1503.55 1775.05 1502.81 L1775.05 1498.11 Q1777.13 1499.25 1779.35 1499.8 Q1781.57 1500.36 1784.05 1500.36 Q1788.06 1500.36 1790.39 1498.25 Q1792.73 1496.15 1792.73 1492.53 Q1792.73 1488.92 1790.39 1486.82 Q1788.06 1484.71 1784.05 1484.71 Q1782.18 1484.71 1780.3 1485.13 Q1778.45 1485.54 1776.51 1486.42 L1776.51 1469.06 Z" fill="#000000" fill-rule="evenodd" fill-opacity="1" /><path clip-path="url(#clip310)" d="M1816.62 1472.14 Q1813.01 1472.14 1811.18 1475.71 Q1809.38 1479.25 1809.38 1486.38 Q1809.38 1493.48 1811.18 1497.05 Q1813.01 1500.59 1816.62 1500.59 Q1820.26 1500.59 1822.06 1497.05 Q1823.89 1493.48 1823.89 1486.38 Q1823.89 1479.25 1822.06 1475.71 Q1820.26 1472.14 1816.62 1472.14 M1816.62 1468.44 Q1822.43 1468.44 1825.49 1473.04 Q1828.57 1477.63 1828.57 1486.38 Q1828.57 1495.1 1825.49 1499.71 Q1822.43 1504.29 1816.62 1504.29 Q1810.81 1504.29 1807.73 1499.71 Q1804.68 1495.1 1804.68 1486.38 Q1804.68 1477.63 1807.73 1473.04 Q1810.81 1468.44 1816.62 1468.44 Z" fill="#000000" fill-rule="evenodd" fill-opacity="1" /><path clip-path="url(#clip310)" d="M1846.78 1472.14 Q1843.17 1472.14 1841.34 1475.71 Q1839.54 1479.25 1839.54 1486.38 Q1839.54 1493.48 1841.34 1497.05 Q1843.17 1500.59 1846.78 1500.59 Q1850.42 1500.59 1852.22 1497.05 Q1854.05 1493.48 1854.05 1486.38 Q1854.05 1479.25 1852.22 1475.71 Q1850.42 1472.14 1846.78 1472.14 M1846.78 1468.44 Q1852.59 1468.44 1855.65 1473.04 Q1858.73 1477.63 1858.73 1486.38 Q1858.73 1495.1 1855.65 1499.71 Q1852.59 1504.29 1846.78 1504.29 Q1840.97 1504.29 1837.89 1499.71 Q1834.84 1495.1 1834.84 1486.38 Q1834.84 1477.63 1837.89 1473.04 Q1840.97 1468.44 1846.78 1468.44 Z" fill="#000000" fill-rule="evenodd" fill-opacity="1" /><path clip-path="url(#clip310)" d="M2267.12 1499.69 L2283.44 1499.69 L2283.44 1503.62 L2261.5 1503.62 L2261.5 1499.69 Q2264.16 1496.93 2268.74 1492.3 Q2273.35 1487.65 2274.53 1486.31 Q2276.77 1483.78 2277.65 1482.05 Q2278.56 1480.29 2278.56 1478.6 Q2278.56 1475.84 2276.61 1474.11 Q2274.69 1472.37 2271.59 1472.37 Q2269.39 1472.37 2266.93 1473.14 Q2264.5 1473.9 2261.73 1475.45 L2261.73 1470.73 Q2264.55 1469.59 2267 1469.02 Q2269.46 1468.44 2271.5 1468.44 Q2276.87 1468.44 2280.06 1471.12 Q2283.25 1473.81 2283.25 1478.3 Q2283.25 1480.43 2282.44 1482.35 Q2281.66 1484.25 2279.55 1486.84 Q2278.97 1487.51 2275.87 1490.73 Q2272.77 1493.92 2267.12 1499.69 Z" fill="#000000" fill-rule="evenodd" fill-opacity="1" /><path clip-path="url(#clip310)" d="M2303.25 1472.14 Q2299.64 1472.14 2297.81 1475.71 Q2296.01 1479.25 2296.01 1486.38 Q2296.01 1493.48 2297.81 1497.05 Q2299.64 1500.59 2303.25 1500.59 Q2306.89 1500.59 2308.69 1497.05 Q2310.52 1493.48 2310.52 1486.38 Q2310.52 1479.25 2308.69 1475.71 Q2306.89 1472.14 2303.25 1472.14 M2303.25 1468.44 Q2309.06 1468.44 2312.12 1473.04 Q2315.2 1477.63 2315.2 1486.38 Q2315.2 1495.1 2312.12 1499.71 Q2309.06 1504.29 2303.25 1504.29 Q2297.44 1504.29 2294.37 1499.71 Q2291.31 1495.1 2291.31 1486.38 Q2291.31 1477.63 2294.37 1473.04 Q2297.44 1468.44 2303.25 1468.44 Z" fill="#000000" fill-rule="evenodd" fill-opacity="1" /><path clip-path="url(#clip310)" d="M2333.42 1472.14 Q2329.8 1472.14 2327.98 1475.71 Q2326.17 1479.25 2326.17 1486.38 Q2326.17 1493.48 2327.98 1497.05 Q2329.8 1500.59 2333.42 1500.59 Q2337.05 1500.59 2338.86 1497.05 Q2340.68 1493.48 2340.68 1486.38 Q2340.68 1479.25 2338.86 1475.71 Q2337.05 1472.14 2333.42 1472.14 M2333.42 1468.44 Q2339.23 1468.44 2342.28 1473.04 Q2345.36 1477.63 2345.36 1486.38 Q2345.36 1495.1 2342.28 1499.71 Q2339.23 1504.29 2333.42 1504.29 Q2327.61 1504.29 2324.53 1499.71 Q2321.47 1495.1 2321.47 1486.38 Q2321.47 1477.63 2324.53 1473.04 Q2327.61 1468.44 2333.42 1468.44 Z" fill="#000000" fill-rule="evenodd" fill-opacity="1" /><path clip-path="url(#clip310)" d="M2363.58 1472.14 Q2359.97 1472.14 2358.14 1475.71 Q2356.33 1479.25 2356.33 1486.38 Q2356.33 1493.48 2358.14 1497.05 Q2359.97 1500.59 2363.58 1500.59 Q2367.21 1500.59 2369.02 1497.05 Q2370.85 1493.48 2370.85 1486.38 Q2370.85 1479.25 2369.02 1475.71 Q2367.21 1472.14 2363.58 1472.14 M2363.58 1468.44 Q2369.39 1468.44 2372.44 1473.04 Q2375.52 1477.63 2375.52 1486.38 Q2375.52 1495.1 2372.44 1499.71 Q2369.39 1504.29 2363.58 1504.29 Q2357.77 1504.29 2354.69 1499.71 Q2351.63 1495.1 2351.63 1486.38 Q2351.63 1477.63 2354.69 1473.04 Q2357.77 1468.44 2363.58 1468.44 Z" fill="#000000" fill-rule="evenodd" fill-opacity="1" /><path clip-path="url(#clip310)" d="M1282.23 1539.82 Q1282.23 1540.72 1281.81 1540.95 Q1281.39 1541.14 1280.23 1541.14 L1274.05 1541.14 L1269.15 1560.59 Q1268.77 1562.3 1268.77 1563.75 Q1268.77 1565.36 1269.25 1566.07 Q1269.76 1566.78 1270.83 1566.78 Q1272.92 1566.78 1275.17 1564.88 Q1277.46 1562.98 1279.39 1558.34 Q1279.65 1557.73 1279.78 1557.6 Q1279.94 1557.44 1280.36 1557.44 Q1281.16 1557.44 1281.16 1558.08 Q1281.16 1558.31 1280.71 1559.34 Q1280.3 1560.37 1279.36 1561.88 Q1278.46 1563.4 1277.27 1564.81 Q1276.11 1566.23 1274.34 1567.26 Q1272.57 1568.26 1270.67 1568.26 Q1267.99 1568.26 1266.29 1566.55 Q1264.61 1564.84 1264.61 1562.17 Q1264.61 1561.3 1265.29 1558.53 Q1265.96 1555.73 1269.64 1541.14 L1263.81 1541.14 Q1263 1541.14 1262.68 1541.11 Q1262.39 1541.08 1262.16 1540.92 Q1261.97 1540.72 1261.97 1540.34 Q1261.97 1539.72 1262.23 1539.47 Q1262.49 1539.18 1262.81 1539.14 Q1263.16 1539.08 1263.97 1539.08 L1270.15 1539.08 L1272.73 1528.61 Q1272.98 1527.58 1273.63 1527 Q1274.31 1526.39 1274.69 1526.33 Q1275.08 1526.23 1275.37 1526.23 Q1276.24 1526.23 1276.75 1526.71 Q1277.27 1527.16 1277.27 1528 Q1277.27 1528.45 1274.56 1539.08 L1280.36 1539.08 Q1281.1 1539.08 1281.39 1539.11 Q1281.71 1539.14 1281.97 1539.31 Q1282.23 1539.47 1282.23 1539.82 Z" fill="#000000" fill-rule="evenodd" fill-opacity="1" /><polyline clip-path="url(#clip313)" style="stroke:#000000; stroke-linecap:butt; stroke-linejoin:round; stroke-width:2; stroke-opacity:0.1; fill:none" points="
  194.758,1371.82 2352.76,1371.82 
  "/>
<polyline clip-path="url(#clip313)" style="stroke:#000000; stroke-linecap:butt; stroke-linejoin:round; stroke-width:2; stroke-opacity:0.1; fill:none" points="
  194.758,1137.7 2352.76,1137.7 
  "/>
<polyline clip-path="url(#clip313)" style="stroke:#000000; stroke-linecap:butt; stroke-linejoin:round; stroke-width:2; stroke-opacity:0.1; fill:none" points="
  194.758,903.584 2352.76,903.584 
  "/>
<polyline clip-path="url(#clip313)" style="stroke:#000000; stroke-linecap:butt; stroke-linejoin:round; stroke-width:2; stroke-opacity:0.1; fill:none" points="
  194.758,669.464 2352.76,669.464 
  "/>
<polyline clip-path="url(#clip313)" style="stroke:#000000; stroke-linecap:butt; stroke-linejoin:round; stroke-width:2; stroke-opacity:0.1; fill:none" points="
  194.758,435.344 2352.76,435.344 
  "/>
<polyline clip-path="url(#clip313)" style="stroke:#000000; stroke-linecap:butt; stroke-linejoin:round; stroke-width:2; stroke-opacity:0.1; fill:none" points="
  194.758,201.224 2352.76,201.224 
  "/>
<polyline clip-path="url(#clip310)" style="stroke:#000000; stroke-linecap:butt; stroke-linejoin:round; stroke-width:4; stroke-opacity:1; fill:none" points="
  194.758,1442.95 194.758,123.472 
  "/>
<polyline clip-path="url(#clip310)" style="stroke:#000000; stroke-linecap:butt; stroke-linejoin:round; stroke-width:4; stroke-opacity:1; fill:none" points="
  194.758,1371.82 220.654,1371.82 
  "/>
<polyline clip-path="url(#clip310)" style="stroke:#000000; stroke-linecap:butt; stroke-linejoin:round; stroke-width:4; stroke-opacity:1; fill:none" points="
  194.758,1137.7 220.654,1137.7 
  "/>
<polyline clip-path="url(#clip310)" style="stroke:#000000; stroke-linecap:butt; stroke-linejoin:round; stroke-width:4; stroke-opacity:1; fill:none" points="
  194.758,903.584 220.654,903.584 
  "/>
<polyline clip-path="url(#clip310)" style="stroke:#000000; stroke-linecap:butt; stroke-linejoin:round; stroke-width:4; stroke-opacity:1; fill:none" points="
  194.758,669.464 220.654,669.464 
  "/>
<polyline clip-path="url(#clip310)" style="stroke:#000000; stroke-linecap:butt; stroke-linejoin:round; stroke-width:4; stroke-opacity:1; fill:none" points="
  194.758,435.344 220.654,435.344 
  "/>
<polyline clip-path="url(#clip310)" style="stroke:#000000; stroke-linecap:butt; stroke-linejoin:round; stroke-width:4; stroke-opacity:1; fill:none" points="
  194.758,201.224 220.654,201.224 
  "/>
<path clip-path="url(#clip310)" d="M98.6422 1372.28 L128.318 1372.28 L128.318 1376.21 L98.6422 1376.21 L98.6422 1372.28 Z" fill="#000000" fill-rule="evenodd" fill-opacity="1" /><path clip-path="url(#clip310)" d="M142.438 1385.17 L158.758 1385.17 L158.758 1389.1 L136.813 1389.1 L136.813 1385.17 Q139.475 1382.41 144.059 1377.78 Q148.665 1373.13 149.846 1371.79 Q152.091 1369.27 152.971 1367.53 Q153.873 1365.77 153.873 1364.08 Q153.873 1361.33 151.929 1359.59 Q150.008 1357.85 146.906 1357.85 Q144.707 1357.85 142.253 1358.62 Q139.823 1359.38 137.045 1360.93 L137.045 1356.21 Q139.869 1355.08 142.323 1354.5 Q144.776 1353.92 146.813 1353.92 Q152.184 1353.92 155.378 1356.6 Q158.572 1359.29 158.572 1363.78 Q158.572 1365.91 157.762 1367.83 Q156.975 1369.73 154.869 1372.32 Q154.29 1372.99 151.188 1376.21 Q148.086 1379.4 142.438 1385.17 Z" fill="#000000" fill-rule="evenodd" fill-opacity="1" /><path clip-path="url(#clip310)" d="M98.2718 1138.16 L127.948 1138.16 L127.948 1142.09 L98.2718 1142.09 L98.2718 1138.16 Z" fill="#000000" fill-rule="evenodd" fill-opacity="1" /><path clip-path="url(#clip310)" d="M138.85 1151.05 L146.489 1151.05 L146.489 1124.68 L138.179 1126.35 L138.179 1122.09 L146.443 1120.42 L151.119 1120.42 L151.119 1151.05 L158.758 1151.05 L158.758 1154.98 L138.85 1154.98 L138.85 1151.05 Z" fill="#000000" fill-rule="evenodd" fill-opacity="1" /><path clip-path="url(#clip310)" d="M146.813 889.382 Q143.202 889.382 141.373 892.947 Q139.568 896.489 139.568 903.619 Q139.568 910.725 141.373 914.29 Q143.202 917.831 146.813 917.831 Q150.447 917.831 152.253 914.29 Q154.082 910.725 154.082 903.619 Q154.082 896.489 152.253 892.947 Q150.447 889.382 146.813 889.382 M146.813 885.679 Q152.623 885.679 155.679 890.285 Q158.758 894.869 158.758 903.619 Q158.758 912.345 155.679 916.952 Q152.623 921.535 146.813 921.535 Q141.003 921.535 137.924 916.952 Q134.869 912.345 134.869 903.619 Q134.869 894.869 137.924 890.285 Q141.003 885.679 146.813 885.679 Z" fill="#000000" fill-rule="evenodd" fill-opacity="1" /><path clip-path="url(#clip310)" d="M138.85 682.809 L146.489 682.809 L146.489 656.443 L138.179 658.11 L138.179 653.85 L146.443 652.184 L151.119 652.184 L151.119 682.809 L158.758 682.809 L158.758 686.744 L138.85 686.744 L138.85 682.809 Z" fill="#000000" fill-rule="evenodd" fill-opacity="1" /><path clip-path="url(#clip310)" d="M142.438 448.689 L158.758 448.689 L158.758 452.624 L136.813 452.624 L136.813 448.689 Q139.475 445.934 144.059 441.304 Q148.665 436.652 149.846 435.309 Q152.091 432.786 152.971 431.05 Q153.873 429.291 153.873 427.601 Q153.873 424.846 151.929 423.11 Q150.008 421.374 146.906 421.374 Q144.707 421.374 142.253 422.138 Q139.823 422.902 137.045 424.453 L137.045 419.73 Q139.869 418.596 142.323 418.017 Q144.776 417.439 146.813 417.439 Q152.184 417.439 155.378 420.124 Q158.572 422.809 158.572 427.3 Q158.572 429.429 157.762 431.351 Q156.975 433.249 154.869 435.841 Q154.29 436.513 151.188 439.73 Q148.086 442.925 142.438 448.689 Z" fill="#000000" fill-rule="evenodd" fill-opacity="1" /><path clip-path="url(#clip310)" d="M151.628 199.87 Q154.984 200.587 156.859 202.856 Q158.758 205.124 158.758 208.458 Q158.758 213.573 155.239 216.374 Q151.721 219.175 145.239 219.175 Q143.063 219.175 140.748 218.735 Q138.457 218.319 136.003 217.462 L136.003 212.948 Q137.948 214.083 140.262 214.661 Q142.577 215.24 145.1 215.24 Q149.498 215.24 151.79 213.504 Q154.105 211.768 154.105 208.458 Q154.105 205.402 151.952 203.689 Q149.822 201.953 146.003 201.953 L141.975 201.953 L141.975 198.11 L146.188 198.11 Q149.637 198.11 151.466 196.745 Q153.295 195.356 153.295 192.763 Q153.295 190.101 151.397 188.689 Q149.522 187.254 146.003 187.254 Q144.082 187.254 141.883 187.671 Q139.684 188.087 137.045 188.967 L137.045 184.8 Q139.707 184.06 142.022 183.689 Q144.36 183.319 146.42 183.319 Q151.744 183.319 154.846 185.749 Q157.947 188.157 157.947 192.277 Q157.947 195.147 156.304 197.138 Q154.66 199.106 151.628 199.87 Z" fill="#000000" fill-rule="evenodd" fill-opacity="1" /><path clip-path="url(#clip310)" d="M23.7161 783.71 Q25.4231 783.71 26.5181 784.837 Q27.6131 785.932 27.6131 787.349 Q27.6131 788.573 26.9045 789.217 Q26.196 789.861 25.2942 789.861 Q24.006 789.861 22.9432 788.863 Q21.8804 787.865 21.655 786.415 Q20.882 787.478 20.882 789.185 Q20.882 791.987 23.0398 794.467 Q24.0382 795.562 25.8739 796.753 Q27.6775 797.945 28.4504 798.17 L37.0494 800.264 Q38.0156 800.457 42.6532 801.649 Q47.2586 802.808 47.4519 802.905 Q48.3536 803.227 48.8367 803.935 Q49.3198 804.644 49.3198 805.352 Q49.3198 806.158 48.8367 806.705 Q48.3536 807.253 47.5163 807.253 Q47.3875 807.253 46.9044 807.156 Q46.4213 807.059 45.745 806.898 Q45.0686 806.737 44.6822 806.673 L29.4488 802.84 Q26.6791 802.132 25.8095 801.971 Q24.9078 801.778 23.9094 801.778 Q22.1703 801.778 21.5262 802.325 Q20.882 802.873 20.882 803.839 Q20.882 805.513 22.8788 806.608 Q24.8756 807.703 28.7403 808.637 Q29.8031 808.927 30.0285 809.12 Q30.2539 809.281 30.2539 809.765 Q30.2217 810.57 29.5776 810.57 Q29.4166 810.57 28.386 810.312 Q27.3232 810.054 25.7773 809.571 Q24.1992 809.056 23.2009 808.509 Q22.5245 808.187 22.0737 807.897 Q21.6228 807.607 20.9142 807.027 Q20.2057 806.447 19.8192 805.578 Q19.4328 804.708 19.4328 803.645 Q19.4328 801.327 20.8498 799.684 Q22.2669 798.009 24.4891 797.623 Q23.3297 796.818 22.3313 795.819 Q21.3007 794.821 20.3667 792.985 Q19.4328 791.15 19.4328 789.185 Q19.4328 786.737 20.6888 785.224 Q21.9126 783.71 23.7161 783.71 Z" fill="#000000" fill-rule="evenodd" fill-opacity="1" /><path clip-path="url(#clip310)" d="M47.0996 762.756 Q47.7308 762.756 47.8886 763.049 Q48.0239 763.342 48.0239 764.153 L48.0239 768.482 L61.6405 771.909 Q62.8354 772.179 63.8499 772.179 Q64.9771 772.179 65.473 771.841 Q65.969 771.48 65.969 770.736 Q65.969 769.271 64.6389 767.693 Q63.3088 766.092 60.0624 764.74 Q59.6341 764.559 59.5439 764.469 Q59.4312 764.356 59.4312 764.063 Q59.4312 763.5 59.8821 763.5 Q60.0399 763.5 60.7613 763.815 Q61.4827 764.108 62.5423 764.762 Q63.6019 765.393 64.5938 766.228 Q65.5857 767.039 66.3072 768.279 Q67.006 769.519 67.006 770.849 Q67.006 772.72 65.8112 773.915 Q64.6164 775.087 62.7452 775.087 Q62.1365 775.087 60.1977 774.614 Q58.2364 774.141 48.0239 771.57 L48.0239 775.651 Q48.0239 776.215 48.0013 776.44 Q47.9788 776.643 47.8661 776.801 Q47.7308 776.936 47.4603 776.936 Q47.032 776.936 46.8516 776.756 Q46.6487 776.575 46.6262 776.35 Q46.5811 776.102 46.5811 775.538 L46.5811 771.21 L39.2542 769.406 Q38.5328 769.226 38.127 768.775 Q37.6987 768.302 37.6536 768.031 Q37.586 767.761 37.586 767.558 Q37.586 766.949 37.9241 766.588 Q38.2398 766.228 38.8259 766.228 Q39.1415 766.228 46.5811 768.121 L46.5811 764.063 Q46.5811 763.545 46.6036 763.342 Q46.6262 763.116 46.7389 762.936 Q46.8516 762.756 47.0996 762.756 Z" fill="#000000" fill-rule="evenodd" fill-opacity="1" /><path clip-path="url(#clip310)" d="M556.099 43.6931 L556.099 65.8515 L569.223 65.8515 Q575.826 65.8515 578.986 63.1374 Q582.186 60.3828 582.186 54.752 Q582.186 49.0808 578.986 46.4072 Q575.826 43.6931 569.223 43.6931 L556.099 43.6931 M556.099 18.8205 L556.099 37.0496 L568.211 37.0496 Q574.206 37.0496 577.123 34.8216 Q580.08 32.5531 580.08 27.935 Q580.08 23.3575 577.123 21.089 Q574.206 18.8205 568.211 18.8205 L556.099 18.8205 M547.916 12.096 L568.818 12.096 Q578.176 12.096 583.24 15.9849 Q588.303 19.8737 588.303 27.0438 Q588.303 32.5936 585.711 35.8748 Q583.118 39.156 578.095 39.9662 Q584.131 41.2625 587.453 45.3944 Q590.815 49.4858 590.815 55.6432 Q590.815 63.745 585.306 68.1605 Q579.796 72.576 569.629 72.576 L547.916 72.576 L547.916 12.096 Z" fill="#000000" fill-rule="evenodd" fill-opacity="1" /><path clip-path="url(#clip310)" d="M622.088 32.4315 Q616.092 32.4315 612.609 37.1306 Q609.125 41.7891 609.125 49.9314 Q609.125 58.0738 612.568 62.7728 Q616.052 67.4314 622.088 67.4314 Q628.043 67.4314 631.526 62.7323 Q635.01 58.0333 635.01 49.9314 Q635.01 41.8701 631.526 37.1711 Q628.043 32.4315 622.088 32.4315 M622.088 26.1121 Q631.81 26.1121 637.36 32.4315 Q642.909 38.7509 642.909 49.9314 Q642.909 61.0714 637.36 67.4314 Q631.81 73.7508 622.088 73.7508 Q612.325 73.7508 606.775 67.4314 Q601.266 61.0714 601.266 49.9314 Q601.266 38.7509 606.775 32.4315 Q612.325 26.1121 622.088 26.1121 Z" fill="#000000" fill-rule="evenodd" fill-opacity="1" /><path clip-path="url(#clip310)" d="M655.265 9.54393 L662.718 9.54393 L662.718 72.576 L655.265 72.576 L655.265 9.54393 Z" fill="#000000" fill-rule="evenodd" fill-opacity="1" /><path clip-path="url(#clip310)" d="M678.314 9.54393 L685.768 9.54393 L685.768 72.576 L678.314 72.576 L678.314 9.54393 Z" fill="#000000" fill-rule="evenodd" fill-opacity="1" /><path clip-path="url(#clip310)" d="M740.172 48.0275 L740.172 51.6733 L705.901 51.6733 Q706.387 59.3701 710.519 63.421 Q714.691 67.4314 722.105 67.4314 Q726.399 67.4314 730.409 66.3781 Q734.46 65.3249 738.43 63.2184 L738.43 70.267 Q734.419 71.9684 730.206 72.8596 Q725.993 73.7508 721.659 73.7508 Q710.803 73.7508 704.443 67.4314 Q698.123 61.1119 698.123 50.3365 Q698.123 39.1965 704.119 32.6746 Q710.154 26.1121 720.363 26.1121 Q729.518 26.1121 734.824 32.0264 Q740.172 37.9003 740.172 48.0275 M732.718 45.84 Q732.637 39.7232 729.275 36.0774 Q725.953 32.4315 720.444 32.4315 Q714.205 32.4315 710.438 35.9558 Q706.711 39.4801 706.144 45.8805 L732.718 45.84 Z" fill="#000000" fill-rule="evenodd" fill-opacity="1" /><path clip-path="url(#clip310)" d="M778.696 34.1734 Q777.44 33.4443 775.941 33.1202 Q774.483 32.7556 772.7 32.7556 Q766.381 32.7556 762.978 36.8875 Q759.616 40.9789 759.616 48.6757 L759.616 72.576 L752.122 72.576 L752.122 27.2059 L759.616 27.2059 L759.616 34.2544 Q761.966 30.1225 765.733 28.1376 Q769.5 26.1121 774.888 26.1121 Q775.658 26.1121 776.589 26.2337 Q777.521 26.3147 778.655 26.5172 L778.696 34.1734 Z" fill="#000000" fill-rule="evenodd" fill-opacity="1" /><path clip-path="url(#clip310)" d="M815.437 28.5427 L815.437 35.5912 Q812.278 33.9709 808.875 33.1607 Q805.472 32.3505 801.826 32.3505 Q796.277 32.3505 793.482 34.0519 Q790.727 35.7533 790.727 39.156 Q790.727 41.7486 792.712 43.2475 Q794.697 44.7058 800.692 46.0426 L803.244 46.6097 Q811.184 48.3111 814.506 51.4303 Q817.868 54.509 817.868 60.0587 Q817.868 66.3781 812.845 70.0644 Q807.862 73.7508 799.112 73.7508 Q795.466 73.7508 791.497 73.0216 Q787.567 72.3329 783.192 70.9151 L783.192 63.2184 Q787.324 65.3654 791.335 66.4591 Q795.345 67.5124 799.274 67.5124 Q804.541 67.5124 807.376 65.73 Q810.212 63.9071 810.212 60.6258 Q810.212 57.5877 808.146 55.9673 Q806.12 54.3469 799.193 52.8481 L796.601 52.2405 Q789.674 50.7821 786.595 47.7845 Q783.516 44.7463 783.516 39.4801 Q783.516 33.0797 788.053 29.5959 Q792.59 26.1121 800.935 26.1121 Q805.067 26.1121 808.713 26.7198 Q812.359 27.3274 815.437 28.5427 Z" fill="#000000" fill-rule="evenodd" fill-opacity="1" /><path clip-path="url(#clip310)" d="M829.737 9.54393 L837.191 9.54393 L837.191 72.576 L829.737 72.576 L829.737 9.54393 Z" fill="#000000" fill-rule="evenodd" fill-opacity="1" /><path clip-path="url(#clip310)" d="M891.594 48.0275 L891.594 51.6733 L857.324 51.6733 Q857.81 59.3701 861.942 63.421 Q866.114 67.4314 873.527 67.4314 Q877.821 67.4314 881.832 66.3781 Q885.883 65.3249 889.853 63.2184 L889.853 70.267 Q885.842 71.9684 881.629 72.8596 Q877.416 73.7508 873.082 73.7508 Q862.225 73.7508 855.865 67.4314 Q849.546 61.1119 849.546 50.3365 Q849.546 39.1965 855.541 32.6746 Q861.577 26.1121 871.786 26.1121 Q880.941 26.1121 886.247 32.0264 Q891.594 37.9003 891.594 48.0275 M884.141 45.84 Q884.06 39.7232 880.698 36.0774 Q877.376 32.4315 871.867 32.4315 Q865.628 32.4315 861.861 35.9558 Q858.134 39.4801 857.567 45.8805 L884.141 45.84 Z" fill="#000000" fill-rule="evenodd" fill-opacity="1" /><path clip-path="url(#clip310)" d="M898.481 27.2059 L906.38 27.2059 L920.558 65.2844 L934.737 27.2059 L942.636 27.2059 L925.622 72.576 L915.495 72.576 L898.481 27.2059 Z" fill="#000000" fill-rule="evenodd" fill-opacity="1" /><path clip-path="url(#clip310)" d="M999.916 49.7694 Q990.882 49.7694 987.398 51.8354 Q983.915 53.9013 983.915 58.8839 Q983.915 62.8538 986.507 65.2034 Q989.14 67.5124 993.637 67.5124 Q999.835 67.5124 1003.56 63.1374 Q1007.33 58.7219 1007.33 51.4303 L1007.33 49.7694 L999.916 49.7694 M1014.78 46.6907 L1014.78 72.576 L1007.33 72.576 L1007.33 65.6895 Q1004.78 69.8214 1000.97 71.8063 Q997.161 73.7508 991.652 73.7508 Q984.684 73.7508 980.552 69.8619 Q976.461 65.9325 976.461 59.3701 Q976.461 51.7138 981.565 47.825 Q986.71 43.9361 996.877 43.9361 L1007.33 43.9361 L1007.33 43.2069 Q1007.33 38.0623 1003.93 35.2672 Q1000.56 32.4315 994.447 32.4315 Q990.558 32.4315 986.872 33.3632 Q983.185 34.295 979.783 36.1584 L979.783 29.2718 Q983.874 27.692 987.722 26.9223 Q991.571 26.1121 995.217 26.1121 Q1005.06 26.1121 1009.92 31.2163 Q1014.78 36.3204 1014.78 46.6907 Z" fill="#000000" fill-rule="evenodd" fill-opacity="1" /><path clip-path="url(#clip310)" d="M1067.85 45.1919 L1067.85 72.576 L1060.4 72.576 L1060.4 45.4349 Q1060.4 38.994 1057.88 35.7938 Q1055.37 32.5936 1050.35 32.5936 Q1044.31 32.5936 1040.83 36.4419 Q1037.35 40.2903 1037.35 46.9338 L1037.35 72.576 L1029.85 72.576 L1029.85 27.2059 L1037.35 27.2059 L1037.35 34.2544 Q1040.02 30.163 1043.62 28.1376 Q1047.27 26.1121 1052.01 26.1121 Q1059.83 26.1121 1063.84 30.9732 Q1067.85 35.7938 1067.85 45.1919 Z" fill="#000000" fill-rule="evenodd" fill-opacity="1" /><path clip-path="url(#clip310)" d="M1112.57 34.0924 L1112.57 9.54393 L1120.02 9.54393 L1120.02 72.576 L1112.57 72.576 L1112.57 65.7705 Q1110.22 69.8214 1106.62 71.8063 Q1103.05 73.7508 1098.03 73.7508 Q1089.81 73.7508 1084.62 67.1883 Q1079.48 60.6258 1079.48 49.9314 Q1079.48 39.2371 1084.62 32.6746 Q1089.81 26.1121 1098.03 26.1121 Q1103.05 26.1121 1106.62 28.0971 Q1110.22 30.0415 1112.57 34.0924 M1087.17 49.9314 Q1087.17 58.1548 1090.53 62.8538 Q1093.94 67.5124 1099.85 67.5124 Q1105.77 67.5124 1109.17 62.8538 Q1112.57 58.1548 1112.57 49.9314 Q1112.57 41.7081 1109.17 37.0496 Q1105.77 32.3505 1099.85 32.3505 Q1093.94 32.3505 1090.53 37.0496 Q1087.17 41.7081 1087.17 49.9314 Z" fill="#000000" fill-rule="evenodd" fill-opacity="1" /><path clip-path="url(#clip310)" d="M1203.31 63.9476 L1203.31 47.7034 L1189.94 47.7034 L1189.94 40.9789 L1211.41 40.9789 L1211.41 66.9452 Q1206.67 70.3075 1200.96 72.0494 Q1195.25 73.7508 1188.77 73.7508 Q1174.59 73.7508 1166.57 65.4869 Q1158.59 57.1826 1158.59 42.3968 Q1158.59 27.5705 1166.57 19.3066 Q1174.59 11.0023 1188.77 11.0023 Q1194.68 11.0023 1199.99 12.4606 Q1205.34 13.9189 1209.83 16.7545 L1209.83 25.464 Q1205.3 21.6156 1200.19 19.6712 Q1195.09 17.7268 1189.46 17.7268 Q1178.36 17.7268 1172.77 23.9246 Q1167.22 30.1225 1167.22 42.3968 Q1167.22 54.6305 1172.77 60.8284 Q1178.36 67.0263 1189.46 67.0263 Q1193.79 67.0263 1197.19 66.2971 Q1200.6 65.5274 1203.31 63.9476 Z" fill="#000000" fill-rule="evenodd" fill-opacity="1" /><path clip-path="url(#clip310)" d="M1263.75 45.1919 L1263.75 72.576 L1256.3 72.576 L1256.3 45.4349 Q1256.3 38.994 1253.79 35.7938 Q1251.27 32.5936 1246.25 32.5936 Q1240.22 32.5936 1236.73 36.4419 Q1233.25 40.2903 1233.25 46.9338 L1233.25 72.576 L1225.75 72.576 L1225.75 9.54393 L1233.25 9.54393 L1233.25 34.2544 Q1235.92 30.163 1239.53 28.1376 Q1243.17 26.1121 1247.91 26.1121 Q1255.73 26.1121 1259.74 30.9732 Q1263.75 35.7938 1263.75 45.1919 Z" fill="#000000" fill-rule="evenodd" fill-opacity="1" /><path clip-path="url(#clip310)" d="M1297.5 76.7889 Q1294.34 84.8907 1291.34 87.3618 Q1288.34 89.8329 1283.32 89.8329 L1277.36 89.8329 L1277.36 83.5945 L1281.74 83.5945 Q1284.82 83.5945 1286.52 82.1361 Q1288.22 80.6778 1290.28 75.2496 L1291.62 71.8468 L1273.27 27.2059 L1281.17 27.2059 L1295.35 62.6918 L1309.53 27.2059 L1317.43 27.2059 L1297.5 76.7889 Z" fill="#000000" fill-rule="evenodd" fill-opacity="1" /><path clip-path="url(#clip310)" d="M1356.64 28.5427 L1356.64 35.5912 Q1353.48 33.9709 1350.08 33.1607 Q1346.67 32.3505 1343.03 32.3505 Q1337.48 32.3505 1334.68 34.0519 Q1331.93 35.7533 1331.93 39.156 Q1331.93 41.7486 1333.91 43.2475 Q1335.9 44.7058 1341.89 46.0426 L1344.45 46.6097 Q1352.38 48.3111 1355.71 51.4303 Q1359.07 54.509 1359.07 60.0587 Q1359.07 66.3781 1354.05 70.0644 Q1349.06 73.7508 1340.31 73.7508 Q1336.67 73.7508 1332.7 73.0216 Q1328.77 72.3329 1324.39 70.9151 L1324.39 63.2184 Q1328.52 65.3654 1332.54 66.4591 Q1336.55 67.5124 1340.48 67.5124 Q1345.74 67.5124 1348.58 65.73 Q1351.41 63.9071 1351.41 60.6258 Q1351.41 57.5877 1349.35 55.9673 Q1347.32 54.3469 1340.39 52.8481 L1337.8 52.2405 Q1330.87 50.7821 1327.8 47.7845 Q1324.72 44.7463 1324.72 39.4801 Q1324.72 33.0797 1329.25 29.5959 Q1333.79 26.1121 1342.14 26.1121 Q1346.27 26.1121 1349.91 26.7198 Q1353.56 27.3274 1356.64 28.5427 Z" fill="#000000" fill-rule="evenodd" fill-opacity="1" /><path clip-path="url(#clip310)" d="M1409.75 48.0275 L1409.75 51.6733 L1375.47 51.6733 Q1375.96 59.3701 1380.09 63.421 Q1384.27 67.4314 1391.68 67.4314 Q1395.97 67.4314 1399.98 66.3781 Q1404.03 65.3249 1408 63.2184 L1408 70.267 Q1403.99 71.9684 1399.78 72.8596 Q1395.57 73.7508 1391.23 73.7508 Q1380.38 73.7508 1374.02 67.4314 Q1367.7 61.1119 1367.7 50.3365 Q1367.7 39.1965 1373.69 32.6746 Q1379.73 26.1121 1389.94 26.1121 Q1399.09 26.1121 1404.4 32.0264 Q1409.75 37.9003 1409.75 48.0275 M1402.29 45.84 Q1402.21 39.7232 1398.85 36.0774 Q1395.53 32.4315 1390.02 32.4315 Q1383.78 32.4315 1380.01 35.9558 Q1376.29 39.4801 1375.72 45.8805 L1402.29 45.84 Z" fill="#000000" fill-rule="evenodd" fill-opacity="1" /><path clip-path="url(#clip310)" d="M1421.98 9.54393 L1429.43 9.54393 L1429.43 72.576 L1421.98 72.576 L1421.98 9.54393 Z" fill="#000000" fill-rule="evenodd" fill-opacity="1" /><path clip-path="url(#clip310)" d="M1473.95 28.5427 L1473.95 35.5912 Q1470.79 33.9709 1467.39 33.1607 Q1463.99 32.3505 1460.34 32.3505 Q1454.79 32.3505 1452 34.0519 Q1449.24 35.7533 1449.24 39.156 Q1449.24 41.7486 1451.23 43.2475 Q1453.21 44.7058 1459.21 46.0426 L1461.76 46.6097 Q1469.7 48.3111 1473.02 51.4303 Q1476.38 54.509 1476.38 60.0587 Q1476.38 66.3781 1471.36 70.0644 Q1466.38 73.7508 1457.63 73.7508 Q1453.98 73.7508 1450.01 73.0216 Q1446.08 72.3329 1441.71 70.9151 L1441.71 63.2184 Q1445.84 65.3654 1449.85 66.4591 Q1453.86 67.5124 1457.79 67.5124 Q1463.06 67.5124 1465.89 65.73 Q1468.73 63.9071 1468.73 60.6258 Q1468.73 57.5877 1466.66 55.9673 Q1464.64 54.3469 1457.71 52.8481 L1455.12 52.2405 Q1448.19 50.7821 1445.11 47.7845 Q1442.03 44.7463 1442.03 39.4801 Q1442.03 33.0797 1446.57 29.5959 Q1451.11 26.1121 1459.45 26.1121 Q1463.58 26.1121 1467.23 26.7198 Q1470.87 27.3274 1473.95 28.5427 Z" fill="#000000" fill-rule="evenodd" fill-opacity="1" /><path clip-path="url(#clip310)" d="M1532.53 9.62495 Q1527.1 18.942 1524.47 28.0566 Q1521.83 37.1711 1521.83 46.5287 Q1521.83 55.8863 1524.47 65.0818 Q1527.14 74.2369 1532.53 83.5134 L1526.05 83.5134 Q1519.97 73.9938 1516.93 64.7983 Q1513.93 55.6027 1513.93 46.5287 Q1513.93 37.4952 1516.93 28.3401 Q1519.93 19.1851 1526.05 9.62495 L1532.53 9.62495 Z" fill="#000000" fill-rule="evenodd" fill-opacity="1" /><path clip-path="url(#clip310)" d="M1549.46 65.6895 L1562.83 65.6895 L1562.83 19.5497 L1548.29 22.4663 L1548.29 15.0127 L1562.75 12.096 L1570.93 12.096 L1570.93 65.6895 L1584.3 65.6895 L1584.3 72.576 L1549.46 72.576 L1549.46 65.6895 Z" fill="#000000" fill-rule="evenodd" fill-opacity="1" /><path clip-path="url(#clip310)" d="M1601.07 71.3202 L1601.07 63.8666 Q1604.15 65.3249 1607.31 66.0946 Q1610.47 66.8642 1613.51 66.8642 Q1621.61 66.8642 1625.86 61.436 Q1630.16 55.9673 1630.76 44.8678 Q1628.41 48.3516 1624.81 50.215 Q1621.2 52.0784 1616.83 52.0784 Q1607.75 52.0784 1602.45 46.6097 Q1597.18 41.1005 1597.18 31.5808 Q1597.18 22.2638 1602.69 16.633 Q1608.2 11.0023 1617.35 11.0023 Q1627.85 11.0023 1633.36 19.0636 Q1638.91 27.0843 1638.91 42.3968 Q1638.91 56.6965 1632.1 65.2439 Q1625.33 73.7508 1613.87 73.7508 Q1610.79 73.7508 1607.63 73.1431 Q1604.47 72.5355 1601.07 71.3202 M1617.35 45.678 Q1622.86 45.678 1626.06 41.9107 Q1629.3 38.1433 1629.3 31.5808 Q1629.3 25.0589 1626.06 21.2916 Q1622.86 17.4837 1617.35 17.4837 Q1611.85 17.4837 1608.6 21.2916 Q1605.4 25.0589 1605.4 31.5808 Q1605.4 38.1433 1608.6 41.9107 Q1611.85 45.678 1617.35 45.678 Z" fill="#000000" fill-rule="evenodd" fill-opacity="1" /><path clip-path="url(#clip310)" d="M1653.85 71.3202 L1653.85 63.8666 Q1656.93 65.3249 1660.09 66.0946 Q1663.25 66.8642 1666.29 66.8642 Q1674.39 66.8642 1678.64 61.436 Q1682.94 55.9673 1683.55 44.8678 Q1681.2 48.3516 1677.59 50.215 Q1673.99 52.0784 1669.61 52.0784 Q1660.54 52.0784 1655.23 46.6097 Q1649.96 41.1005 1649.96 31.5808 Q1649.96 22.2638 1655.47 16.633 Q1660.98 11.0023 1670.14 11.0023 Q1680.63 11.0023 1686.14 19.0636 Q1691.69 27.0843 1691.69 42.3968 Q1691.69 56.6965 1684.88 65.2439 Q1678.12 73.7508 1666.65 73.7508 Q1663.58 73.7508 1660.42 73.1431 Q1657.26 72.5355 1653.85 71.3202 M1670.14 45.678 Q1675.65 45.678 1678.85 41.9107 Q1682.09 38.1433 1682.09 31.5808 Q1682.09 25.0589 1678.85 21.2916 Q1675.65 17.4837 1670.14 17.4837 Q1664.63 17.4837 1661.39 21.2916 Q1658.19 25.0589 1658.19 31.5808 Q1658.19 38.1433 1661.39 41.9107 Q1664.63 45.678 1670.14 45.678 Z" fill="#000000" fill-rule="evenodd" fill-opacity="1" /><path clip-path="url(#clip310)" d="M1724.91 39.075 Q1719.4 39.075 1716.16 42.8424 Q1712.96 46.6097 1712.96 53.1722 Q1712.96 59.6941 1716.16 63.502 Q1719.4 67.2693 1724.91 67.2693 Q1730.42 67.2693 1733.62 63.502 Q1736.86 59.6941 1736.86 53.1722 Q1736.86 46.6097 1733.62 42.8424 Q1730.42 39.075 1724.91 39.075 M1741.15 13.4328 L1741.15 20.8865 Q1738.07 19.4281 1734.91 18.6585 Q1731.79 17.8888 1728.71 17.8888 Q1720.61 17.8888 1716.32 23.3575 Q1712.06 28.8262 1711.46 39.8852 Q1713.85 36.3609 1717.45 34.4975 Q1721.06 32.5936 1725.39 32.5936 Q1734.51 32.5936 1739.77 38.1433 Q1745.08 43.6525 1745.08 53.1722 Q1745.08 62.4892 1739.57 68.12 Q1734.06 73.7508 1724.91 73.7508 Q1714.41 73.7508 1708.86 65.73 Q1703.31 57.6687 1703.31 42.3968 Q1703.31 28.0566 1710.12 19.5497 Q1716.93 11.0023 1728.39 11.0023 Q1731.47 11.0023 1734.59 11.6099 Q1737.75 12.2175 1741.15 13.4328 Z" fill="#000000" fill-rule="evenodd" fill-opacity="1" /><path clip-path="url(#clip310)" d="M1756.95 9.62495 L1763.43 9.62495 Q1769.51 19.1851 1772.5 28.3401 Q1775.54 37.4952 1775.54 46.5287 Q1775.54 55.6027 1772.5 64.7983 Q1769.51 73.9938 1763.43 83.5134 L1756.95 83.5134 Q1762.34 74.2369 1764.97 65.0818 Q1767.64 55.8863 1767.64 46.5287 Q1767.64 37.1711 1764.97 28.0566 Q1762.34 18.942 1756.95 9.62495 Z" fill="#000000" fill-rule="evenodd" fill-opacity="1" /><path clip-path="url(#clip310)" d="M1825.37 18.8205 L1825.37 65.8515 L1835.25 65.8515 Q1847.77 65.8515 1853.56 60.1802 Q1859.4 54.509 1859.4 42.2752 Q1859.4 30.1225 1853.56 24.4918 Q1847.77 18.8205 1835.25 18.8205 L1825.37 18.8205 M1817.19 12.096 L1834 12.096 Q1851.58 12.096 1859.8 19.4281 Q1868.02 26.7198 1868.02 42.2752 Q1868.02 57.9117 1859.76 65.2439 Q1851.5 72.576 1834 72.576 L1817.19 72.576 L1817.19 12.096 Z" fill="#000000" fill-rule="evenodd" fill-opacity="1" /><path clip-path="url(#clip310)" d="M1901.36 49.7694 Q1892.33 49.7694 1888.85 51.8354 Q1885.36 53.9013 1885.36 58.8839 Q1885.36 62.8538 1887.95 65.2034 Q1890.59 67.5124 1895.08 67.5124 Q1901.28 67.5124 1905.01 63.1374 Q1908.78 58.7219 1908.78 51.4303 L1908.78 49.7694 L1901.36 49.7694 M1916.23 46.6907 L1916.23 72.576 L1908.78 72.576 L1908.78 65.6895 Q1906.22 69.8214 1902.42 71.8063 Q1898.61 73.7508 1893.1 73.7508 Q1886.13 73.7508 1882 69.8619 Q1877.91 65.9325 1877.91 59.3701 Q1877.91 51.7138 1883.01 47.825 Q1888.16 43.9361 1898.33 43.9361 L1908.78 43.9361 L1908.78 43.2069 Q1908.78 38.0623 1905.37 35.2672 Q1902.01 32.4315 1895.89 32.4315 Q1892.01 32.4315 1888.32 33.3632 Q1884.63 34.295 1881.23 36.1584 L1881.23 29.2718 Q1885.32 27.692 1889.17 26.9223 Q1893.02 26.1121 1896.66 26.1121 Q1906.51 26.1121 1911.37 31.2163 Q1916.23 36.3204 1916.23 46.6907 Z" fill="#000000" fill-rule="evenodd" fill-opacity="1" /><path clip-path="url(#clip310)" d="M1938.96 14.324 L1938.96 27.2059 L1954.31 27.2059 L1954.31 32.9987 L1938.96 32.9987 L1938.96 57.6282 Q1938.96 63.1779 1940.45 64.7578 Q1941.99 66.3376 1946.65 66.3376 L1954.31 66.3376 L1954.31 72.576 L1946.65 72.576 Q1938.02 72.576 1934.74 69.3758 Q1931.46 66.1351 1931.46 57.6282 L1931.46 32.9987 L1925.99 32.9987 L1925.99 27.2059 L1931.46 27.2059 L1931.46 14.324 L1938.96 14.324 Z" fill="#000000" fill-rule="evenodd" fill-opacity="1" /><path clip-path="url(#clip310)" d="M1984.73 49.7694 Q1975.7 49.7694 1972.21 51.8354 Q1968.73 53.9013 1968.73 58.8839 Q1968.73 62.8538 1971.32 65.2034 Q1973.96 67.5124 1978.45 67.5124 Q1984.65 67.5124 1988.38 63.1374 Q1992.14 58.7219 1992.14 51.4303 L1992.14 49.7694 L1984.73 49.7694 M1999.6 46.6907 L1999.6 72.576 L1992.14 72.576 L1992.14 65.6895 Q1989.59 69.8214 1985.78 71.8063 Q1981.98 73.7508 1976.47 73.7508 Q1969.5 73.7508 1965.37 69.8619 Q1961.28 65.9325 1961.28 59.3701 Q1961.28 51.7138 1966.38 47.825 Q1971.53 43.9361 1981.69 43.9361 L1992.14 43.9361 L1992.14 43.2069 Q1992.14 38.0623 1988.74 35.2672 Q1985.38 32.4315 1979.26 32.4315 Q1975.37 32.4315 1971.69 33.3632 Q1968 34.295 1964.6 36.1584 L1964.6 29.2718 Q1968.69 27.692 1972.54 26.9223 Q1976.39 26.1121 1980.03 26.1121 Q1989.88 26.1121 1994.74 31.2163 Q1999.6 36.3204 1999.6 46.6907 Z" fill="#000000" fill-rule="evenodd" fill-opacity="1" /><polyline clip-path="url(#clip313)" style="stroke:#009af9; stroke-linecap:butt; stroke-linejoin:round; stroke-width:4; stroke-opacity:1; fill:none" points="
  255.833,874.241 256.865,896.824 257.897,888.726 258.929,850.504 259.96,953.748 260.992,856.092 262.024,865.406 263.056,893.147 264.088,978.512 265.12,785.552 
  266.152,958.318 267.183,926.532 268.215,923.398 269.247,899.912 270.279,911.64 271.311,917.636 272.343,889.807 273.375,930.231 274.406,886.934 275.438,946.884 
  276.47,957.809 277.502,1000.79 278.534,929.761 279.566,940.745 280.598,939.107 281.629,969.64 282.661,955.315 283.693,910.373 284.725,942.581 285.757,869.694 
  286.789,1008.23 287.821,939.605 288.852,815.743 289.884,843.938 290.916,691.066 291.948,1217.96 292.98,764.288 294.012,1137.9 295.043,791.794 296.075,819.564 
  297.107,943.684 298.139,965.144 299.171,1152.82 300.203,933.625 301.235,1069.85 302.266,1098.08 303.298,860.89 304.33,959.422 305.362,789.917 306.394,908.152 
  307.426,1016.77 308.458,858.46 309.489,830.956 310.521,774.321 311.553,980.016 312.585,875.943 313.617,998.128 314.649,987.999 315.681,938.251 316.712,989.532 
  317.744,811.174 318.776,1059.42 319.808,903.528 320.84,984.155 321.872,835.069 322.904,840.38 323.935,889.233 324.967,926.504 325.999,890.756 327.031,823.474 
  328.063,908.589 329.095,947.282 330.127,920.855 331.158,866.946 332.19,928.768 333.222,866.572 334.254,876.225 335.286,738.705 336.318,911.172 337.349,880.267 
  338.381,933.051 339.413,836.272 340.445,773.586 341.477,866.041 342.509,894.772 343.541,671.127 344.572,1042.89 345.604,822.909 346.636,1023.92 347.668,926.377 
  348.7,968.221 349.732,892.949 350.764,778.919 351.795,844.963 352.827,898.799 353.859,1111.49 354.891,1007.9 355.923,895.93 356.955,1061.51 357.987,852.297 
  359.018,915.852 360.05,1017.58 361.082,994.771 362.114,949.583 363.146,856.819 364.178,838.236 365.21,887.932 366.241,881.899 367.273,901.365 368.305,920.599 
  369.337,845.559 370.369,844.307 371.401,804.06 372.433,952.009 373.464,859.738 374.496,914.855 375.528,1002.97 376.56,969.956 377.592,952.377 378.624,868.607 
  379.655,889.009 380.687,931.762 381.719,927.524 382.751,935.56 383.783,1030.21 384.815,965.688 385.847,1094.23 386.878,765.006 387.91,819.98 388.942,846.049 
  389.974,949.978 391.006,687.827 392.038,976.094 393.07,830.333 394.101,823.168 395.133,855.608 396.165,828.202 397.197,912.843 398.229,938.554 399.261,1058.71 
  400.293,773.867 401.324,936.243 402.356,830.876 403.388,872.843 404.42,864.34 405.452,894.693 406.484,871.013 407.516,919.973 408.547,909.024 409.579,987.673 
  410.611,801.118 411.643,898.409 412.675,962.064 413.707,992.877 414.739,929.646 415.77,879.153 416.802,910.832 417.834,891.531 418.866,1114.37 419.898,869.231 
  420.93,756.008 421.961,965.158 422.993,838.943 424.025,911.064 425.057,859.197 426.089,954.758 427.121,912.402 428.153,881.083 429.184,844.187 430.216,838.048 
  431.248,734.613 432.28,935.208 433.312,788.183 434.344,938.196 435.376,949.57 436.407,1196.66 437.439,663.464 438.471,905.33 439.503,785.128 440.535,1328.63 
  441.567,834.837 442.599,886.188 443.63,1017.28 444.662,870.858 445.694,1150.15 446.726,655.631 447.758,931.159 448.79,905.044 449.822,897.14 450.853,909.109 
  451.885,810.426 452.917,852.59 453.949,826.79 454.981,908.61 456.013,914.758 457.045,1067.57 458.076,1115.37 459.108,1143.59 460.14,1101.01 461.172,853.875 
  462.204,871.831 463.236,934.054 464.267,762.669 465.299,904.778 466.331,916.853 467.363,970.151 468.395,927.231 469.427,904.879 470.459,879.37 471.49,846.962 
  472.522,799.838 473.554,931.457 474.586,767.476 475.618,950.068 476.65,852.615 477.682,864.744 478.713,905.233 479.745,886.259 480.777,975.594 481.809,905.14 
  482.841,879.047 483.873,1199.94 484.905,910.652 485.936,959.82 486.968,858.411 488,941.87 489.032,789.058 490.064,805.702 491.096,905.346 492.128,894.277 
  493.159,890.371 494.191,990.763 495.223,918.265 496.255,776.524 497.287,968.738 498.319,982.763 499.351,921.073 500.382,878.4 501.414,968.086 502.446,1120.77 
  503.478,980.523 504.51,1046.04 505.542,698.371 506.573,794.607 507.605,983.206 508.637,1011.45 509.669,966.833 510.701,859.733 511.733,851.59 512.765,986.321 
  513.796,946.473 514.828,979.999 515.86,1032.61 516.892,1218.04 517.924,757.187 518.956,941.551 519.988,867.931 521.019,936.972 522.051,945.472 523.083,836.891 
  524.115,915.376 525.147,1006.79 526.179,1036.25 527.211,847.217 528.242,1056.21 529.274,766.669 530.306,745.61 531.338,825.614 532.37,861.904 533.402,935.54 
  534.434,866.118 535.465,865.46 536.497,820.364 537.529,744.028 538.561,1067.52 539.593,956.135 540.625,952.421 541.657,872.594 542.688,788.504 543.72,840.934 
  544.752,894.378 545.784,796.293 546.816,858.428 547.848,856.047 548.879,865.162 549.911,1119.28 550.943,934.763 551.975,850.675 553.007,1028.15 554.039,852.842 
  555.071,797.876 556.102,914.285 557.134,925.556 558.166,812.889 559.198,954.262 560.23,882.861 561.262,835.165 562.294,841.64 563.325,865.982 564.357,685.24 
  565.389,553.659 566.421,895.863 567.453,847.676 568.485,781.98 569.517,842.431 570.548,847.548 571.58,704.279 572.612,867.526 573.644,838.113 574.676,1134.45 
  575.708,904.986 576.74,891.509 577.771,918.792 578.803,939.454 579.835,901.577 580.867,753.42 581.899,808.094 582.931,775.85 583.963,919.923 584.994,811.779 
  586.026,1018.4 587.058,938.459 588.09,964.096 589.122,789.296 590.154,916.68 591.186,1350.06 592.217,953.181 593.249,588.382 594.281,790.037 595.313,914.291 
  596.345,777.42 597.377,1001.7 598.408,839.599 599.44,943.379 600.472,894.251 601.504,913.204 602.536,778.529 603.568,827.139 604.6,881.635 605.631,820.941 
  606.663,927.124 607.695,898.103 608.727,966.287 609.759,844.534 610.791,907.438 611.823,877.269 612.854,755 613.886,864.767 614.918,879.187 615.95,1059.62 
  616.982,1078.3 618.014,808.108 619.046,866.786 620.077,931.766 621.109,929.401 622.141,793.591 623.173,781.831 624.205,1014.35 625.237,742.366 626.269,912.607 
  627.3,966.682 628.332,789.077 629.364,961.583 630.396,902.713 631.428,781.277 632.46,888.479 633.492,792.725 634.523,962.948 635.555,928.735 636.587,746.413 
  637.619,876.158 638.651,897.77 639.683,828.18 640.714,509.099 641.746,1218.16 642.778,999.306 643.81,923.506 644.842,905.554 645.874,763.359 646.906,981.712 
  647.937,845.272 648.969,934.788 650.001,844.167 651.033,869.864 652.065,899.714 653.097,835.256 654.129,1004.54 655.16,876.23 656.192,1221.89 657.224,1315.38 
  658.256,1238.99 659.288,825.236 660.32,1076.3 661.352,1073.05 662.383,699.604 663.415,953.145 664.447,797.187 665.479,786.538 666.511,989.55 667.543,917.823 
  668.575,851.191 669.606,932.686 670.638,889.301 671.67,922.187 672.702,928.585 673.734,865.745 674.766,838.329 675.798,856.617 676.829,840.609 677.861,907.794 
  678.893,764.231 679.925,958.389 680.957,889.734 681.989,931.273 683.02,1010.93 684.052,1137.52 685.084,858.647 686.116,787.858 687.148,1012.15 688.18,644.713 
  689.212,1052.19 690.243,958.846 691.275,846.204 692.307,829.211 693.339,808.75 694.371,938.63 695.403,980.655 696.435,984.184 697.466,1171.42 698.498,1350.59 
  699.53,1003.64 700.562,760.989 701.594,1002.11 702.626,909.734 703.658,970.112 704.689,875.272 705.721,893.981 706.753,873.255 707.785,881.282 708.817,873.78 
  709.849,912.885 710.881,865.183 711.912,744.896 712.944,981.834 713.976,1016.12 715.008,803.039 716.04,797.699 717.072,937.294 718.104,857.289 719.135,1054.91 
  720.167,914.089 721.199,839.613 722.231,889.187 723.263,901.794 724.295,1066.22 725.326,955.556 726.358,875.931 727.39,944.557 728.422,1033.12 729.454,928.865 
  730.486,802.522 731.518,1037.87 732.549,900.213 733.581,804.622 734.613,901.809 735.645,864.019 736.677,945.048 737.709,776.88 738.741,957.196 739.772,771.565 
  740.804,983.774 741.836,913.118 742.868,988.701 743.9,944.875 744.932,726.95 745.964,929.439 746.995,926.056 748.027,989.547 749.059,937.195 750.091,1082.66 
  751.123,1137.97 752.155,1015.99 753.187,1050.83 754.218,835.883 755.25,941.431 756.282,995.433 757.314,1099.27 758.346,907.329 759.378,886.835 760.41,887.987 
  761.441,1033.23 762.473,1064.15 763.505,809.923 764.537,940.937 765.569,865.001 766.601,962.343 767.632,1073.54 768.664,843.611 769.696,715.977 770.728,818.841 
  771.76,984.258 772.792,913.222 773.824,944.059 774.855,994.447 775.887,875.788 776.919,987.628 777.951,1263.84 778.983,974.451 780.015,1305.83 781.047,1058.18 
  782.078,1356.12 783.11,387.902 784.142,1315.25 785.174,739.733 786.206,778.446 787.238,1292.06 788.27,1001.28 789.301,653.604 790.333,713.768 791.365,972.824 
  792.397,978.795 793.429,904.709 794.461,1031.62 795.493,790.428 796.524,1036.95 797.556,646.681 798.588,1050.8 799.62,760.709 800.652,1033.13 801.684,912.468 
  802.716,769.373 803.747,1072.03 804.779,1241.8 805.811,1130.25 806.843,1383.15 807.875,875.284 808.907,453.056 809.938,856.58 810.97,1019.35 812.002,615.635 
  813.034,768.821 814.066,578.861 815.098,1137.35 816.13,955.798 817.161,1160.35 818.193,784.41 819.225,579.587 820.257,735.741 821.289,828.008 822.321,577.281 
  823.353,1111.33 824.384,593.655 825.416,865.422 826.448,1052.58 827.48,502.26 828.512,866.628 829.544,1084.84 830.576,676.508 831.607,1163.1 832.639,1283.62 
  833.671,824.1 834.703,945.917 835.735,792.057 836.767,723.309 837.799,1266.87 838.83,983.825 839.862,938.859 840.894,1198.62 841.926,945.592 842.958,906.251 
  843.99,618.086 845.022,842.945 846.053,1054.15 847.085,852.367 848.117,791.478 849.149,1026.19 850.181,628.075 851.213,993.116 852.245,1104.11 853.276,890.582 
  854.308,893.968 855.34,848.495 856.372,885.746 857.404,912.267 858.436,786.087 859.467,792.858 860.499,879.528 861.531,965.103 862.563,753.137 863.595,911.099 
  864.627,855.612 865.659,878.929 866.69,1092.52 867.722,1076.57 868.754,1058.53 869.786,850.934 870.818,1024.55 871.85,832.817 872.882,729.073 873.913,943.105 
  874.945,981.464 875.977,1011.36 877.009,840.684 878.041,901.076 879.073,836.349 880.105,845.687 881.136,960.888 882.168,941.937 883.2,922.313 884.232,839.155 
  885.264,934.257 886.296,906.699 887.328,872.684 888.359,991.399 889.391,895.417 890.423,1006.17 891.455,941.584 892.487,939.721 893.519,1051.45 894.551,946.369 
  895.582,1300.47 896.614,1048.65 897.646,757.81 898.678,911.544 899.71,1117.86 900.742,1146.13 901.773,985.047 902.805,929.137 903.837,824.113 904.869,774.556 
  905.901,1278.54 906.933,971.853 907.965,697.743 908.996,1245.63 910.028,1017.69 911.06,1223.51 912.092,468.696 913.124,1159.14 914.156,1192.74 915.188,811.702 
  916.219,1093.6 917.251,598.119 918.283,903.292 919.315,957.778 920.347,740.135 921.379,974.719 922.411,833.591 923.442,965.295 924.474,962.291 925.506,1028.31 
  926.538,1111.99 927.57,765.291 928.602,1010.93 929.634,919.645 930.665,1002.71 931.697,864.357 932.729,746.925 933.761,917.916 934.793,872.114 935.825,696.393 
  936.857,933.394 937.888,1103.93 938.92,775.38 939.952,924.617 940.984,1035.99 942.016,984.163 943.048,1137.09 944.079,1205.65 945.111,1028.51 946.143,791.432 
  947.175,954.13 948.207,879.159 949.239,861.987 950.271,1152.99 951.302,1026.79 952.334,795.632 953.366,889.579 954.398,1131.45 955.43,985.095 956.462,1077.63 
  957.494,748.583 958.525,1206.02 959.557,837.535 960.589,904.733 961.621,1095.26 962.653,958.012 963.685,818.908 964.717,926.879 965.748,1051.52 966.78,837.967 
  967.812,656.746 968.844,1027.86 969.876,923.222 970.908,730.77 971.94,877.771 972.971,795.059 974.003,1004.59 975.035,1090.5 976.067,494.434 977.099,595.61 
  978.131,1100.77 979.163,741.755 980.194,721.787 981.226,973.881 982.258,858.673 983.29,1061.52 984.322,1204.91 985.354,1043.56 986.385,918.424 987.417,893.116 
  988.449,903.296 989.481,1211.77 990.513,785.801 991.545,793.298 992.577,1051.93 993.608,923.986 994.64,924.541 995.672,902.294 996.704,1120.66 997.736,823.636 
  998.768,797.533 999.8,955.331 1000.83,739.848 1001.86,857.325 1002.9,861.272 1003.93,762.042 1004.96,1013.41 1005.99,744.266 1007.02,875.742 1008.05,800.368 
  1009.09,1049.26 1010.12,972.011 1011.15,896.615 1012.18,1022.5 1013.21,1060.63 1014.25,901.685 1015.28,744.31 1016.31,894.922 1017.34,905.968 1018.37,1044.12 
  1019.4,973.362 1020.44,923.285 1021.47,887.591 1022.5,921.115 1023.53,953.078 1024.56,1111.19 1025.6,1099.8 1026.63,1064.94 1027.66,729.723 1028.69,912.217 
  1029.72,822.655 1030.76,717.669 1031.79,1057.41 1032.82,1092.54 1033.85,797.847 1034.88,935.727 1035.91,1206.79 1036.95,884.074 1037.98,729.684 1039.01,959.695 
  1040.04,1039.42 1041.07,769.888 1042.11,713.584 1043.14,727.058 1044.17,865.28 1045.2,1206.87 1046.23,925.442 1047.26,983.581 1048.3,751.34 1049.33,960.769 
  1050.36,897.398 1051.39,692.807 1052.42,765.589 1053.46,1009.42 1054.49,824.92 1055.52,688.303 1056.55,1120.54 1057.58,934.81 1058.62,773.829 1059.65,721.476 
  1060.68,734.274 1061.71,900.18 1062.74,640.731 1063.77,806.676 1064.81,584.15 1065.84,924.284 1066.87,753.849 1067.9,1050.92 1068.93,1065.63 1069.97,1041.33 
  1071,805.339 1072.03,663.097 1073.06,1030 1074.09,981.246 1075.12,776.875 1076.16,941.633 1077.19,866.028 1078.22,952.847 1079.25,968.678 1080.28,1040.24 
  1081.32,1006.52 1082.35,760.136 1083.38,950.675 1084.41,787.964 1085.44,639.937 1086.48,948.7 1087.51,806.599 1088.54,920.907 1089.57,1051.51 1090.6,920.776 
  1091.63,924.931 1092.67,832.895 1093.7,824.207 1094.73,882.421 1095.76,853.599 1096.79,883.439 1097.83,963.353 1098.86,853.318 1099.89,830.238 1100.92,901.891 
  1101.95,914.537 1102.98,898.675 1104.02,806.65 1105.05,937.495 1106.08,798.918 1107.11,901.316 1108.14,1061.05 1109.18,771.494 1110.21,884.087 1111.24,943.402 
  1112.27,914.395 1113.3,874.454 1114.34,947.048 1115.37,898.024 1116.4,941.075 1117.43,1055.27 1118.46,1056.09 1119.49,775.043 1120.53,782.842 1121.56,917.115 
  1122.59,1001.48 1123.62,965.477 1124.65,880.623 1125.69,842.174 1126.72,788.071 1127.75,886.285 1128.78,854.556 1129.81,920.112 1130.85,912.156 1131.88,1019.44 
  1132.91,1077.66 1133.94,1024.34 1134.97,762.85 1136,902.548 1137.04,935.465 1138.07,1079.47 1139.1,739.236 1140.13,818.358 1141.16,866.767 1142.2,893.218 
  1143.23,864.071 1144.26,819.891 1145.29,874.64 1146.32,982.505 1147.35,892.488 1148.39,867.105 1149.42,918.098 1150.45,848.349 1151.48,857.84 1152.51,850.946 
  1153.55,975.577 1154.58,959.211 1155.61,993.911 1156.64,857.109 1157.67,898.36 1158.71,994.429 1159.74,851.75 1160.77,910.646 1161.8,901.109 1162.83,1006.19 
  1163.86,840.11 1164.9,958.346 1165.93,828.7 1166.96,934.181 1167.99,928.448 1169.02,869.93 1170.06,847.737 1171.09,830.216 1172.12,848.313 1173.15,924.601 
  1174.18,923.608 1175.21,967.368 1176.25,938.515 1177.28,921.132 1178.31,937.793 1179.34,860.397 1180.37,993.494 1181.41,985.966 1182.44,855.507 1183.47,851.845 
  1184.5,857.742 1185.53,818.922 1186.57,926.808 1187.6,916.73 1188.63,881.441 1189.66,921.368 1190.69,882.201 1191.72,949.282 1192.76,851.456 1193.79,892.428 
  1194.82,874.869 1195.85,897.855 1196.88,846.341 1197.92,866.073 1198.95,902.573 1199.98,926.02 1201.01,899.35 1202.04,1039.87 1203.07,836.441 1204.11,810.199 
  1205.14,907.838 1206.17,886.41 1207.2,935.115 1208.23,929.461 1209.27,865.063 1210.3,899.489 1211.33,919.146 1212.36,896.697 1213.39,916.447 1214.43,867.831 
  1215.46,901.863 1216.49,884.2 1217.52,918.267 1218.55,917.433 1219.58,978.493 1220.62,851.391 1221.65,941.951 1222.68,813.901 1223.71,943.181 1224.74,882.521 
  1225.78,919.37 1226.81,894.119 1227.84,974.551 1228.87,950.484 1229.9,935.021 1230.93,885.154 1231.97,827.281 1233,910.8 1234.03,923.665 1235.06,947.145 
  1236.09,986.553 1237.13,850.724 1238.16,900.445 1239.19,815.59 1240.22,900.07 1241.25,944.648 1242.29,833.041 1243.32,922.976 1244.35,922.747 1245.38,856.756 
  1246.41,897.942 1247.44,920.627 1248.48,886.296 1249.51,887.103 1250.54,907.98 1251.57,887.237 1252.6,889.203 1253.64,908.475 1254.67,915.896 1255.7,913.758 
  1256.73,890.14 1257.76,900.545 1258.79,911.068 1259.83,912.942 1260.86,960.754 1261.89,956.242 1262.92,864.757 1263.95,973.065 1264.99,830.007 1266.02,932.348 
  1267.05,891.778 1268.08,1043 1269.11,925.511 1270.15,935.764 1271.18,838.397 1272.21,793.111 1273.24,925.62 1274.27,919.536 1275.3,845.37 1276.34,920.955 
  1277.37,922.867 1278.4,874.05 1279.43,925.968 1280.46,931.75 1281.5,851.973 1282.53,924.064 1283.56,907.125 1284.59,893.132 1285.62,910.31 1286.65,956.278 
  1287.69,974.486 1288.72,847.684 1289.75,945.772 1290.78,904.719 1291.81,918.092 1292.85,843.285 1293.88,832.992 1294.91,909.125 1295.94,901.519 1296.97,938.825 
  1298.01,925.272 1299.04,907.52 1300.07,898.272 1301.1,879.18 1302.13,891.598 1303.16,868.642 1304.2,887.877 1305.23,937.717 1306.26,875.806 1307.29,872.034 
  1308.32,902.283 1309.36,888.368 1310.39,901.571 1311.42,895.883 1312.45,932.055 1313.48,855.285 1314.51,902.859 1315.55,876.125 1316.58,888.726 1317.61,654.25 
  1318.64,648.357 1319.67,821.052 1320.71,886.759 1321.74,936.542 1322.77,850.282 1323.8,888.339 1324.83,873.588 1325.87,857.002 1326.9,934.151 1327.93,877.034 
  1328.96,897.747 1329.99,803.178 1331.02,908.859 1332.06,1136.69 1333.09,829.387 1334.12,757.223 1335.15,877.295 1336.18,819.667 1337.22,822.191 1338.25,860.333 
  1339.28,912.271 1340.31,861.498 1341.34,982.747 1342.38,963.596 1343.41,900.735 1344.44,940.602 1345.47,806.613 1346.5,764.638 1347.53,917.22 1348.57,876.695 
  1349.6,877.569 1350.63,888.301 1351.66,945.806 1352.69,962.234 1353.73,902.768 1354.76,947.87 1355.79,849.287 1356.82,943.454 1357.85,943.635 1358.88,938.848 
  1359.92,865.934 1360.95,710.473 1361.98,884.272 1363.01,900.063 1364.04,806.902 1365.08,818.562 1366.11,971.113 1367.14,979.97 1368.17,892.241 1369.2,864.449 
  1370.24,863.666 1371.27,937.585 1372.3,867.929 1373.33,838.091 1374.36,930.246 1375.39,1191.34 1376.43,1229.92 1377.46,914.071 1378.49,899.321 1379.52,736.197 
  1380.55,910.879 1381.59,893.939 1382.62,773.034 1383.65,982.671 1384.68,953.291 1385.71,857.465 1386.74,876.296 1387.78,869.974 1388.81,947.143 1389.84,842.778 
  1390.87,953.537 1391.9,1083.31 1392.94,873.121 1393.97,889.947 1395,933.301 1396.03,1024.32 1397.06,1005.49 1398.1,802.527 1399.13,689.17 1400.16,931.052 
  1401.19,925.82 1402.22,844.797 1403.25,994.649 1404.29,866.857 1405.32,874.96 1406.35,914.653 1407.38,779.821 1408.41,845.498 1409.45,777.623 1410.48,763.693 
  1411.51,1020.67 1412.54,745.137 1413.57,881.424 1414.6,913.55 1415.64,708.83 1416.67,938.554 1417.7,907.315 1418.73,925.322 1419.76,944.824 1420.8,822.192 
  1421.83,892.787 1422.86,932.39 1423.89,723.23 1424.92,863.068 1425.96,983.588 1426.99,968.533 1428.02,932.608 1429.05,831.107 1430.08,868.624 1431.11,1102.65 
  1432.15,761.337 1433.18,876.295 1434.21,1024.71 1435.24,1070.34 1436.27,1125.99 1437.31,990.092 1438.34,854.679 1439.37,906.826 1440.4,885.749 1441.43,1122.35 
  1442.46,918.369 1443.5,739.997 1444.53,932.614 1445.56,935.467 1446.59,917.347 1447.62,939.794 1448.66,860.84 1449.69,904.667 1450.72,816.473 1451.75,919.81 
  1452.78,969.618 1453.82,853.487 1454.85,919.341 1455.88,929.425 1456.91,951.088 1457.94,856.123 1458.97,828.978 1460.01,765.342 1461.04,889.803 1462.07,904.192 
  1463.1,952.809 1464.13,965.336 1465.17,874.085 1466.2,920.533 1467.23,821.853 1468.26,851.098 1469.29,862.276 1470.32,864.795 1471.36,919.606 1472.39,905.138 
  1473.42,941.825 1474.45,1004.88 1475.48,889.743 1476.52,775.737 1477.55,1162.66 1478.58,1008.76 1479.61,827.325 1480.64,935.031 1481.68,910.119 1482.71,850.078 
  1483.74,884.671 1484.77,814.684 1485.8,909.269 1486.83,915.417 1487.87,836.347 1488.9,880.103 1489.93,890.276 1490.96,985.305 1491.99,926.83 1493.03,921.989 
  1494.06,902.196 1495.09,891.759 1496.12,951.622 1497.15,866.457 1498.18,919.649 1499.22,875.009 1500.25,946.494 1501.28,891.806 1502.31,964.927 1503.34,585.237 
  1504.38,859.479 1505.41,815.079 1506.44,869.331 1507.47,915.483 1508.5,823.656 1509.54,861.786 1510.57,841.343 1511.6,900.799 1512.63,1093.91 1513.66,958.026 
  1514.69,967.695 1515.73,1000.21 1516.76,901.503 1517.79,759.905 1518.82,830.969 1519.85,892.216 1520.89,981.347 1521.92,926.727 1522.95,875.647 1523.98,898.738 
  1525.01,924.611 1526.05,731.252 1527.08,941.933 1528.11,814.065 1529.14,911.896 1530.17,900.815 1531.2,890.591 1532.24,889.238 1533.27,809.672 1534.3,788.663 
  1535.33,933.061 1536.36,824.116 1537.4,870.162 1538.43,852.616 1539.46,910.65 1540.49,1029.09 1541.52,851.985 1542.55,1040.48 1543.59,811.675 1544.62,825.935 
  1545.65,888.793 1546.68,873.491 1547.71,865.245 1548.75,994.375 1549.78,883.296 1550.81,851.302 1551.84,1012.91 1552.87,992.36 1553.91,857.03 1554.94,880.762 
  1555.97,909.126 1557,814.294 1558.03,902.577 1559.06,1002.78 1560.1,877.449 1561.13,932.596 1562.16,964.974 1563.19,890.283 1564.22,1209.53 1565.26,985.383 
  1566.29,837.226 1567.32,1130.25 1568.35,874.385 1569.38,903.706 1570.41,1044.37 1571.45,818.179 1572.48,809.035 1573.51,846.059 1574.54,948.317 1575.57,872.246 
  1576.61,863.372 1577.64,868.348 1578.67,959.073 1579.7,785.401 1580.73,885.65 1581.77,941.475 1582.8,882.347 1583.83,897.97 1584.86,837.474 1585.89,943.936 
  1586.92,1003.98 1587.96,999.147 1588.99,937.6 1590.02,830.26 1591.05,1070.36 1592.08,823.67 1593.12,906.995 1594.15,926.025 1595.18,895.753 1596.21,906.801 
  1597.24,780.325 1598.27,982.765 1599.31,977.486 1600.34,858.422 1601.37,978.409 1602.4,829.068 1603.43,898.309 1604.47,926.355 1605.5,929.532 1606.53,939.029 
  1607.56,887.615 1608.59,916.687 1609.63,912.487 1610.66,887.777 1611.69,886.943 1612.72,854.848 1613.75,928.089 1614.78,902.009 1615.82,881.532 1616.85,912.845 
  1617.88,869.755 1618.91,897.381 1619.94,919.785 1620.98,936.391 1622.01,793.623 1623.04,979.386 1624.07,986.485 1625.1,942.473 1626.13,989.567 1627.17,948.839 
  1628.2,924.543 1629.23,1082.24 1630.26,899.97 1631.29,927.835 1632.33,1012.49 1633.36,864.652 1634.39,986.032 1635.42,866.748 1636.45,886.648 1637.49,904.11 
  1638.52,1180.16 1639.55,874.159 1640.58,939.863 1641.61,946.522 1642.64,957.696 1643.68,812.366 1644.71,1039.76 1645.74,917.377 1646.77,999.006 1647.8,953.294 
  1648.84,816.545 1649.87,678.064 1650.9,1082.49 1651.93,1075.26 1652.96,856.617 1653.99,745.538 1655.03,904.231 1656.06,830.68 1657.09,913.302 1658.12,1055.38 
  1659.15,822.845 1660.19,888.057 1661.22,956.543 1662.25,779.184 1663.28,835.266 1664.31,816.734 1665.35,945.204 1666.38,835.154 1667.41,873.245 1668.44,919.767 
  1669.47,986.187 1670.5,796.673 1671.54,823.924 1672.57,849.002 1673.6,941.266 1674.63,966.079 1675.66,1078.76 1676.7,996.023 1677.73,866.542 1678.76,888.792 
  1679.79,816.573 1680.82,953.916 1681.85,855.113 1682.89,931.225 1683.92,896.594 1684.95,998.599 1685.98,912.416 1687.01,867.15 1688.05,900.477 1689.08,816.984 
  1690.11,847.898 1691.14,1086.8 1692.17,837.59 1693.21,882.022 1694.24,910.709 1695.27,895.535 1696.3,881.845 1697.33,848.138 1698.36,977.67 1699.4,965.179 
  1700.43,927.978 1701.46,860.657 1702.49,909.119 1703.52,861.996 1704.56,903.812 1705.59,905.299 1706.62,917.608 1707.65,902.99 1708.68,937.709 1709.71,926.409 
  1710.75,887.099 1711.78,871.788 1712.81,898.66 1713.84,937.378 1714.87,942.472 1715.91,1097.24 1716.94,918.22 1717.97,895.399 1719,953.36 1720.03,883.286 
  1721.07,1035.43 1722.1,939.717 1723.13,612.661 1724.16,1404.98 1725.19,1116.22 1726.22,758.729 1727.26,932.988 1728.29,963.093 1729.32,1205.26 1730.35,782.621 
  1731.38,965.248 1732.42,733.632 1733.45,976.413 1734.48,861.665 1735.51,977.265 1736.54,749.458 1737.58,908.784 1738.61,1267.43 1739.64,1134.5 1740.67,807.157 
  1741.7,850.131 1742.73,984.281 1743.77,934.001 1744.8,713.382 1745.83,862.03 1746.86,872.696 1747.89,867.574 1748.93,844.399 1749.96,930.271 1750.99,862.248 
  1752.02,1064.48 1753.05,1004.76 1754.08,963.41 1755.12,1105.23 1756.15,1027.44 1757.18,1050.6 1758.21,1126.77 1759.24,1103.68 1760.28,726.825 1761.31,1114.05 
  1762.34,726.656 1763.37,1023.99 1764.4,956.284 1765.44,830.379 1766.47,867.449 1767.5,1021.11 1768.53,821.385 1769.56,846.769 1770.59,840.721 1771.63,1202.09 
  1772.66,851.671 1773.69,893.566 1774.72,1069.21 1775.75,755.434 1776.79,789.597 1777.82,943.644 1778.85,1027.94 1779.88,1066.63 1780.91,1133.05 1781.94,902.431 
  1782.98,818.888 1784.01,667.063 1785.04,909.409 1786.07,959.848 1787.1,837.492 1788.14,801.051 1789.17,838.144 1790.2,865.67 1791.23,839.397 1792.26,752.31 
  1793.3,820.918 1794.33,1130.26 1795.36,906.984 1796.39,732.8 1797.42,885.552 1798.45,1025.08 1799.49,960.439 1800.52,921.017 1801.55,765.481 1802.58,948.588 
  1803.61,768.122 1804.65,833.957 1805.68,930.005 1806.71,906.373 1807.74,806.54 1808.77,1066.31 1809.8,930.686 1810.84,911.137 1811.87,851.673 1812.9,767.043 
  1813.93,899.928 1814.96,926.409 1816,852.202 1817.03,799.043 1818.06,935.547 1819.09,864.341 1820.12,887.919 1821.16,844.97 1822.19,892.898 1823.22,917.089 
  1824.25,1019.64 1825.28,907.851 1826.31,839.013 1827.35,910.35 1828.38,1405.61 1829.41,854.51 1830.44,962.534 1831.47,828.178 1832.51,1244.44 1833.54,1039.17 
  1834.57,938.839 1835.6,856.003 1836.63,887.227 1837.66,862.773 1838.7,1218.62 1839.73,800.141 1840.76,1022.58 1841.79,772.33 1842.82,866.296 1843.86,688.983 
  1844.89,853.115 1845.92,758.48 1846.95,990.027 1847.98,833.306 1849.02,1016.7 1850.05,838.31 1851.08,824.716 1852.11,831.545 1853.14,1040.49 1854.17,960.85 
  1855.21,973.12 1856.24,1019.84 1857.27,880.728 1858.3,1045.99 1859.33,818.461 1860.37,846.873 1861.4,822.167 1862.43,790.59 1863.46,936.27 1864.49,1025.43 
  1865.52,1044.33 1866.56,871.688 1867.59,872.736 1868.62,776.042 1869.65,906.523 1870.68,857.183 1871.72,911.811 1872.75,980.483 1873.78,1005.91 1874.81,921.019 
  1875.84,757.813 1876.88,829.197 1877.91,966.154 1878.94,815.235 1879.97,743.84 1881,776.573 1882.03,774.649 1883.07,903.886 1884.1,754.084 1885.13,1001.59 
  1886.16,696.747 1887.19,991.53 1888.23,901.117 1889.26,894.053 1890.29,915.448 1891.32,796.917 1892.35,918.86 1893.38,954.893 1894.42,676.635 1895.45,797.545 
  1896.48,940.917 1897.51,949.472 1898.54,988.382 1899.58,758.244 1900.61,835.766 1901.64,883.683 1902.67,850.237 1903.7,847.789 1904.74,990.001 1905.77,963.197 
  1906.8,758.598 1907.83,938.735 1908.86,672.607 1909.89,852.11 1910.93,859.641 1911.96,876.333 1912.99,678.417 1914.02,856.685 1915.05,1006.39 1916.09,1015.53 
  1917.12,794.705 1918.15,848.541 1919.18,843.136 1920.21,833.918 1921.24,1025.13 1922.28,908.231 1923.31,927.051 1924.34,1012.25 1925.37,1106.38 1926.4,904.554 
  1927.44,748.075 1928.47,778.135 1929.5,1029.31 1930.53,925.289 1931.56,841.446 1932.6,924.55 1933.63,965.725 1934.66,814.7 1935.69,740.18 1936.72,909.854 
  1937.75,886.126 1938.79,997.358 1939.82,911.997 1940.85,938.73 1941.88,914.035 1942.91,865.771 1943.95,764.776 1944.98,828.58 1946.01,952.334 1947.04,690.846 
  1948.07,864.159 1949.11,950.504 1950.14,842.246 1951.17,1028.45 1952.2,1225.93 1953.23,929.728 1954.26,930.487 1955.3,828.789 1956.33,959.591 1957.36,964.369 
  1958.39,1018.02 1959.42,931.327 1960.46,813.722 1961.49,816.924 1962.52,919.768 1963.55,871.113 1964.58,839.458 1965.61,892.136 1966.65,1121.11 1967.68,1201.54 
  1968.71,677.629 1969.74,795.35 1970.77,1103.77 1971.81,831.303 1972.84,932.084 1973.87,854.097 1974.9,937.599 1975.93,1062.41 1976.97,696.169 1978,160.816 
  1979.03,1061.33 1980.06,955.959 1981.09,833.528 1982.12,984.288 1983.16,1140.92 1984.19,1014.89 1985.22,824.794 1986.25,959.996 1987.28,1045.02 1988.32,866.636 
  1989.35,851.935 1990.38,930.354 1991.41,894.177 1992.44,808.535 1993.47,985.972 1994.51,834.527 1995.54,975.493 1996.57,992.025 1997.6,1009.86 1998.63,874.226 
  1999.67,891.64 2000.7,960.613 2001.73,905.456 2002.76,905.228 2003.79,1068.16 2004.83,911.498 2005.86,953.543 2006.89,966.331 2007.92,883.154 2008.95,864.108 
  2009.98,823.803 2011.02,869.117 2012.05,843.212 2013.08,809.649 2014.11,910.785 2015.14,978.438 2016.18,886.897 2017.21,985.917 2018.24,994.724 2019.27,940.869 
  2020.3,931.239 2021.33,944.29 2022.37,968.938 2023.4,1006.12 2024.43,937.222 2025.46,856.125 2026.49,852.145 2027.53,923.885 2028.56,916.396 2029.59,928.536 
  2030.62,990.924 2031.65,873.594 2032.69,804.669 2033.72,811.547 2034.75,986.299 2035.78,880.174 2036.81,821.885 2037.84,784.199 2038.88,878.954 2039.91,829.306 
  2040.94,869.303 2041.97,895.445 2043,946.42 2044.04,864.164 2045.07,784.496 2046.1,893.12 2047.13,885.285 2048.16,1041.23 2049.19,927.447 2050.23,915.072 
  2051.26,982.578 2052.29,886.206 2053.32,935.251 2054.35,849.135 2055.39,856.691 2056.42,840.624 2057.45,928.835 2058.48,922.676 2059.51,1006.01 2060.55,1001.03 
  2061.58,874.461 2062.61,919.009 2063.64,904.746 2064.67,923.787 2065.7,912.24 2066.74,900.928 2067.77,862.742 2068.8,885.083 2069.83,841.564 2070.86,909.208 
  2071.9,918.595 2072.93,881.46 2073.96,840.554 2074.99,908.949 2076.02,837.717 2077.05,890.888 2078.09,979.507 2079.12,922.386 2080.15,893.054 2081.18,904.048 
  2082.21,939.175 2083.25,900.149 2084.28,881.347 2085.31,825.846 2086.34,912.903 2087.37,943.408 2088.41,889.093 2089.44,888.282 2090.47,867.907 2091.5,942.38 
  2092.53,923.4 2093.56,826.961 2094.6,883.492 2095.63,868.759 2096.66,824.188 2097.69,872.946 2098.72,836.507 2099.76,744.726 2100.79,963.709 2101.82,905.218 
  2102.85,916.108 2103.88,851.995 2104.91,866.724 2105.95,892.273 2106.98,898.422 2108.01,863.899 2109.04,854.528 2110.07,895.888 2111.11,994.2 2112.14,941.231 
  2113.17,882.683 2114.2,792.874 2115.23,927.549 2116.27,962.276 2117.3,1040.06 2118.33,979.049 2119.36,920.168 2120.39,811.38 2121.42,964.88 2122.46,556.813 
  2123.49,1298.31 2124.52,891.5 2125.55,880.449 2126.58,750.01 2127.62,980.2 2128.65,893.289 2129.68,895.742 2130.71,1030.32 2131.74,867.084 2132.78,854.038 
  2133.81,853.637 2134.84,901.081 2135.87,909.644 2136.9,937.522 2137.93,975.306 2138.97,916.717 2140,957.909 2141.03,819.392 2142.06,837.071 2143.09,979.837 
  2144.13,922.303 2145.16,933.254 2146.19,903.291 2147.22,987.141 2148.25,908.372 2149.28,888.346 2150.32,992.174 2151.35,985.845 2152.38,915.664 2153.41,908.733 
  2154.44,843.798 2155.48,858.599 2156.51,920.112 2157.54,943.067 2158.57,934.279 2159.6,870.37 2160.64,815.004 2161.67,892.484 2162.7,895.649 2163.73,919.653 
  2164.76,864.611 2165.79,866.362 2166.83,889.642 2167.86,937.386 2168.89,921.292 2169.92,902.796 2170.95,875.08 2171.99,875.743 2173.02,840.604 2174.05,929.555 
  2175.08,912.802 2176.11,889.981 2177.14,867.928 2178.18,929.103 2179.21,994.22 2180.24,939.395 2181.27,922.945 2182.3,910.52 2183.34,882.496 2184.37,901.137 
  2185.4,887.256 2186.43,925.416 2187.46,907.735 2188.5,958.965 2189.53,911.774 2190.56,943.39 2191.59,899.738 2192.62,891.185 2193.65,910.494 2194.69,859.654 
  2195.72,900.039 2196.75,972.165 2197.78,606.08 2198.81,958.127 2199.85,991.378 2200.88,999.092 2201.91,921.08 2202.94,842.106 2203.97,847.147 2205,979.127 
  2206.04,895.727 2207.07,877.872 2208.1,884.618 2209.13,895.595 2210.16,876.642 2211.2,925.134 2212.23,900.408 2213.26,963.69 2214.29,959.282 2215.32,953.033 
  2216.36,888.614 2217.39,960.256 2218.42,961.788 2219.45,854.039 2220.48,923.719 2221.51,825.746 2222.55,965.994 2223.58,938.343 2224.61,875.012 2225.64,902.434 
  2226.67,902.018 2227.71,918.24 2228.74,891.484 2229.77,926.949 2230.8,889.195 2231.83,881.366 2232.86,940.354 2233.9,995.546 2234.93,931.321 2235.96,828.605 
  2236.99,857.454 2238.02,851.507 2239.06,983.149 2240.09,898.198 2241.12,894.731 2242.15,983.911 2243.18,879.101 2244.22,855.06 2245.25,910.561 2246.28,875.055 
  2247.31,932.065 2248.34,887.543 2249.37,870.164 2250.41,922.619 2251.44,974.768 2252.47,876.647 2253.5,909.823 2254.53,917.128 2255.57,899.875 2256.6,903.786 
  2257.63,912.969 2258.66,936.937 2259.69,903.44 2260.72,913.758 2261.76,961.792 2262.79,943.07 2263.82,976.936 2264.85,907.889 2265.88,1106.08 2266.92,832.119 
  2267.95,952.112 2268.98,904.778 2270.01,887.231 2271.04,788.312 2272.08,1013.01 2273.11,904.115 2274.14,943.825 2275.17,918.867 2276.2,891.814 2277.23,975.545 
  2278.27,882.726 2279.3,795.243 2280.33,960.787 2281.36,807.842 2282.39,785.426 2283.43,978.309 2284.46,915.899 2285.49,875.553 2286.52,1015.55 2287.55,999.231 
  2288.58,910.717 2289.62,931.104 2290.65,957.729 2291.68,779.957 
  "/>
</svg>
