<?xml version="1.0" encoding="utf-8"?>
<svg xmlns="http://www.w3.org/2000/svg" xmlns:xlink="http://www.w3.org/1999/xlink" width="600" height="400" viewBox="0 0 2400 1600">
<defs>
  <clipPath id="clip190">
    <rect x="0" y="0" width="2400" height="1600"/>
  </clipPath>
</defs>
<path clip-path="url(#clip190)" d="
M0 1600 L2400 1600 L2400 0 L0 0  Z
  " fill="#ffffff" fill-rule="evenodd" fill-opacity="1"/>
<defs>
  <clipPath id="clip191">
    <rect x="480" y="0" width="1681" height="1600"/>
  </clipPath>
</defs>
<path clip-path="url(#clip190)" d="
M140.696 1486.45 L2352.76 1486.45 L2352.76 123.472 L140.696 123.472  Z
  " fill="#ffffff" fill-rule="evenodd" fill-opacity="1"/>
<defs>
  <clipPath id="clip192">
    <rect x="140" y="123" width="2213" height="1364"/>
  </clipPath>
</defs>
<polyline clip-path="url(#clip192)" style="stroke:#000000; stroke-linecap:butt; stroke-linejoin:round; stroke-width:2; stroke-opacity:0.1; fill:none" points="
  514.763,1486.45 514.763,123.472 
  "/>
<polyline clip-path="url(#clip192)" style="stroke:#000000; stroke-linecap:butt; stroke-linejoin:round; stroke-width:2; stroke-opacity:0.1; fill:none" points="
  991.927,1486.45 991.927,123.472 
  "/>
<polyline clip-path="url(#clip192)" style="stroke:#000000; stroke-linecap:butt; stroke-linejoin:round; stroke-width:2; stroke-opacity:0.1; fill:none" points="
  1469.09,1486.45 1469.09,123.472 
  "/>
<polyline clip-path="url(#clip192)" style="stroke:#000000; stroke-linecap:butt; stroke-linejoin:round; stroke-width:2; stroke-opacity:0.1; fill:none" points="
  1946.25,1486.45 1946.25,123.472 
  "/>
<polyline clip-path="url(#clip190)" style="stroke:#000000; stroke-linecap:butt; stroke-linejoin:round; stroke-width:4; stroke-opacity:1; fill:none" points="
  140.696,1486.45 2352.76,1486.45 
  "/>
<polyline clip-path="url(#clip190)" style="stroke:#000000; stroke-linecap:butt; stroke-linejoin:round; stroke-width:4; stroke-opacity:1; fill:none" points="
  514.763,1486.45 514.763,1470.09 
  "/>
<polyline clip-path="url(#clip190)" style="stroke:#000000; stroke-linecap:butt; stroke-linejoin:round; stroke-width:4; stroke-opacity:1; fill:none" points="
  991.927,1486.45 991.927,1470.09 
  "/>
<polyline clip-path="url(#clip190)" style="stroke:#000000; stroke-linecap:butt; stroke-linejoin:round; stroke-width:4; stroke-opacity:1; fill:none" points="
  1469.09,1486.45 1469.09,1470.09 
  "/>
<polyline clip-path="url(#clip190)" style="stroke:#000000; stroke-linecap:butt; stroke-linejoin:round; stroke-width:4; stroke-opacity:1; fill:none" points="
  1946.25,1486.45 1946.25,1470.09 
  "/>
<path clip-path="url(#clip190)" d="M461.048 1530.29 L490.724 1530.29 L490.724 1534.23 L461.048 1534.23 L461.048 1530.29 Z" fill="#000000" fill-rule="evenodd" fill-opacity="1" /><path clip-path="url(#clip190)" d="M510.817 1515.64 Q507.206 1515.64 505.377 1519.2 Q503.571 1522.75 503.571 1529.87 Q503.571 1536.98 505.377 1540.55 Q507.206 1544.09 510.817 1544.09 Q514.451 1544.09 516.256 1540.55 Q518.085 1536.98 518.085 1529.87 Q518.085 1522.75 516.256 1519.2 Q514.451 1515.64 510.817 1515.64 M510.817 1511.93 Q516.627 1511.93 519.682 1516.54 Q522.761 1521.12 522.761 1529.87 Q522.761 1538.6 519.682 1543.21 Q516.627 1547.79 510.817 1547.79 Q505.007 1547.79 501.928 1543.21 Q498.872 1538.6 498.872 1529.87 Q498.872 1521.12 501.928 1516.54 Q505.007 1511.93 510.817 1511.93 Z" fill="#000000" fill-rule="evenodd" fill-opacity="1" /><path clip-path="url(#clip190)" d="M530.979 1541.24 L535.863 1541.24 L535.863 1547.12 L530.979 1547.12 L530.979 1541.24 Z" fill="#000000" fill-rule="evenodd" fill-opacity="1" /><path clip-path="url(#clip190)" d="M558.895 1516.63 L547.09 1535.08 L558.895 1535.08 L558.895 1516.63 M557.668 1512.56 L563.548 1512.56 L563.548 1535.08 L568.478 1535.08 L568.478 1538.97 L563.548 1538.97 L563.548 1547.12 L558.895 1547.12 L558.895 1538.97 L543.293 1538.97 L543.293 1534.46 L557.668 1512.56 Z" fill="#000000" fill-rule="evenodd" fill-opacity="1" /><path clip-path="url(#clip190)" d="M939.254 1530.29 L968.929 1530.29 L968.929 1534.23 L939.254 1534.23 L939.254 1530.29 Z" fill="#000000" fill-rule="evenodd" fill-opacity="1" /><path clip-path="url(#clip190)" d="M989.022 1515.64 Q985.411 1515.64 983.582 1519.2 Q981.776 1522.75 981.776 1529.87 Q981.776 1536.98 983.582 1540.55 Q985.411 1544.09 989.022 1544.09 Q992.656 1544.09 994.462 1540.55 Q996.29 1536.98 996.29 1529.87 Q996.29 1522.75 994.462 1519.2 Q992.656 1515.64 989.022 1515.64 M989.022 1511.93 Q994.832 1511.93 997.887 1516.54 Q1000.97 1521.12 1000.97 1529.87 Q1000.97 1538.6 997.887 1543.21 Q994.832 1547.79 989.022 1547.79 Q983.212 1547.79 980.133 1543.21 Q977.077 1538.6 977.077 1529.87 Q977.077 1521.12 980.133 1516.54 Q983.212 1511.93 989.022 1511.93 Z" fill="#000000" fill-rule="evenodd" fill-opacity="1" /><path clip-path="url(#clip190)" d="M1009.18 1541.24 L1014.07 1541.24 L1014.07 1547.12 L1009.18 1547.12 L1009.18 1541.24 Z" fill="#000000" fill-rule="evenodd" fill-opacity="1" /><path clip-path="url(#clip190)" d="M1028.28 1543.18 L1044.6 1543.18 L1044.6 1547.12 L1022.66 1547.12 L1022.66 1543.18 Q1025.32 1540.43 1029.9 1535.8 Q1034.51 1531.15 1035.69 1529.81 Q1037.93 1527.28 1038.81 1525.55 Q1039.72 1523.79 1039.72 1522.1 Q1039.72 1519.34 1037.77 1517.61 Q1035.85 1515.87 1032.75 1515.87 Q1030.55 1515.87 1028.1 1516.63 Q1025.67 1517.4 1022.89 1518.95 L1022.89 1514.23 Q1025.71 1513.09 1028.17 1512.51 Q1030.62 1511.93 1032.66 1511.93 Q1038.03 1511.93 1041.22 1514.62 Q1044.41 1517.31 1044.41 1521.8 Q1044.41 1523.93 1043.6 1525.85 Q1042.82 1527.74 1040.71 1530.34 Q1040.13 1531.01 1037.03 1534.23 Q1033.93 1537.42 1028.28 1543.18 Z" fill="#000000" fill-rule="evenodd" fill-opacity="1" /><path clip-path="url(#clip190)" d="M1446.47 1515.64 Q1442.86 1515.64 1441.03 1519.2 Q1439.23 1522.75 1439.23 1529.87 Q1439.23 1536.98 1441.03 1540.55 Q1442.86 1544.09 1446.47 1544.09 Q1450.11 1544.09 1451.91 1540.55 Q1453.74 1536.98 1453.74 1529.87 Q1453.74 1522.75 1451.91 1519.2 Q1450.11 1515.64 1446.47 1515.64 M1446.47 1511.93 Q1452.28 1511.93 1455.34 1516.54 Q1458.42 1521.12 1458.42 1529.87 Q1458.42 1538.6 1455.34 1543.21 Q1452.28 1547.79 1446.47 1547.79 Q1440.66 1547.79 1437.59 1543.21 Q1434.53 1538.6 1434.53 1529.87 Q1434.53 1521.12 1437.59 1516.54 Q1440.66 1511.93 1446.47 1511.93 Z" fill="#000000" fill-rule="evenodd" fill-opacity="1" /><path clip-path="url(#clip190)" d="M1466.64 1541.24 L1471.52 1541.24 L1471.52 1547.12 L1466.64 1547.12 L1466.64 1541.24 Z" fill="#000000" fill-rule="evenodd" fill-opacity="1" /><path clip-path="url(#clip190)" d="M1491.71 1515.64 Q1488.09 1515.64 1486.27 1519.2 Q1484.46 1522.75 1484.46 1529.87 Q1484.46 1536.98 1486.27 1540.55 Q1488.09 1544.09 1491.71 1544.09 Q1495.34 1544.09 1497.15 1540.55 Q1498.97 1536.98 1498.97 1529.87 Q1498.97 1522.75 1497.15 1519.2 Q1495.34 1515.64 1491.71 1515.64 M1491.71 1511.93 Q1497.52 1511.93 1500.57 1516.54 Q1503.65 1521.12 1503.65 1529.87 Q1503.65 1538.6 1500.57 1543.21 Q1497.52 1547.79 1491.71 1547.79 Q1485.9 1547.79 1482.82 1543.21 Q1479.76 1538.6 1479.76 1529.87 Q1479.76 1521.12 1482.82 1516.54 Q1485.9 1511.93 1491.71 1511.93 Z" fill="#000000" fill-rule="evenodd" fill-opacity="1" /><path clip-path="url(#clip190)" d="M1924.44 1515.64 Q1920.83 1515.64 1919 1519.2 Q1917.19 1522.75 1917.19 1529.87 Q1917.19 1536.98 1919 1540.55 Q1920.83 1544.09 1924.44 1544.09 Q1928.07 1544.09 1929.88 1540.55 Q1931.71 1536.98 1931.71 1529.87 Q1931.71 1522.75 1929.88 1519.2 Q1928.07 1515.64 1924.44 1515.64 M1924.44 1511.93 Q1930.25 1511.93 1933.3 1516.54 Q1936.38 1521.12 1936.38 1529.87 Q1936.38 1538.6 1933.3 1543.21 Q1930.25 1547.79 1924.44 1547.79 Q1918.63 1547.79 1915.55 1543.21 Q1912.49 1538.6 1912.49 1529.87 Q1912.49 1521.12 1915.55 1516.54 Q1918.63 1511.93 1924.44 1511.93 Z" fill="#000000" fill-rule="evenodd" fill-opacity="1" /><path clip-path="url(#clip190)" d="M1944.6 1541.24 L1949.48 1541.24 L1949.48 1547.12 L1944.6 1547.12 L1944.6 1541.24 Z" fill="#000000" fill-rule="evenodd" fill-opacity="1" /><path clip-path="url(#clip190)" d="M1963.7 1543.18 L1980.02 1543.18 L1980.02 1547.12 L1958.07 1547.12 L1958.07 1543.18 Q1960.73 1540.43 1965.32 1535.8 Q1969.92 1531.15 1971.1 1529.81 Q1973.35 1527.28 1974.23 1525.55 Q1975.13 1523.79 1975.13 1522.1 Q1975.13 1519.34 1973.19 1517.61 Q1971.27 1515.87 1968.16 1515.87 Q1965.96 1515.87 1963.51 1516.63 Q1961.08 1517.4 1958.3 1518.95 L1958.3 1514.23 Q1961.13 1513.09 1963.58 1512.51 Q1966.03 1511.93 1968.07 1511.93 Q1973.44 1511.93 1976.64 1514.62 Q1979.83 1517.31 1979.83 1521.8 Q1979.83 1523.93 1979.02 1525.85 Q1978.23 1527.74 1976.13 1530.34 Q1975.55 1531.01 1972.45 1534.23 Q1969.34 1537.42 1963.7 1543.18 Z" fill="#000000" fill-rule="evenodd" fill-opacity="1" /><polyline clip-path="url(#clip192)" style="stroke:#000000; stroke-linecap:butt; stroke-linejoin:round; stroke-width:2; stroke-opacity:0.1; fill:none" points="
  140.696,1447.87 2352.76,1447.87 
  "/>
<polyline clip-path="url(#clip192)" style="stroke:#000000; stroke-linecap:butt; stroke-linejoin:round; stroke-width:2; stroke-opacity:0.1; fill:none" points="
  140.696,1139.65 2352.76,1139.65 
  "/>
<polyline clip-path="url(#clip192)" style="stroke:#000000; stroke-linecap:butt; stroke-linejoin:round; stroke-width:2; stroke-opacity:0.1; fill:none" points="
  140.696,831.418 2352.76,831.418 
  "/>
<polyline clip-path="url(#clip192)" style="stroke:#000000; stroke-linecap:butt; stroke-linejoin:round; stroke-width:2; stroke-opacity:0.1; fill:none" points="
  140.696,523.191 2352.76,523.191 
  "/>
<polyline clip-path="url(#clip192)" style="stroke:#000000; stroke-linecap:butt; stroke-linejoin:round; stroke-width:2; stroke-opacity:0.1; fill:none" points="
  140.696,214.963 2352.76,214.963 
  "/>
<polyline clip-path="url(#clip190)" style="stroke:#000000; stroke-linecap:butt; stroke-linejoin:round; stroke-width:4; stroke-opacity:1; fill:none" points="
  140.696,1486.45 140.696,123.472 
  "/>
<polyline clip-path="url(#clip190)" style="stroke:#000000; stroke-linecap:butt; stroke-linejoin:round; stroke-width:4; stroke-opacity:1; fill:none" points="
  140.696,1447.87 167.24,1447.87 
  "/>
<polyline clip-path="url(#clip190)" style="stroke:#000000; stroke-linecap:butt; stroke-linejoin:round; stroke-width:4; stroke-opacity:1; fill:none" points="
  140.696,1139.65 167.24,1139.65 
  "/>
<polyline clip-path="url(#clip190)" style="stroke:#000000; stroke-linecap:butt; stroke-linejoin:round; stroke-width:4; stroke-opacity:1; fill:none" points="
  140.696,831.418 167.24,831.418 
  "/>
<polyline clip-path="url(#clip190)" style="stroke:#000000; stroke-linecap:butt; stroke-linejoin:round; stroke-width:4; stroke-opacity:1; fill:none" points="
  140.696,523.191 167.24,523.191 
  "/>
<polyline clip-path="url(#clip190)" style="stroke:#000000; stroke-linecap:butt; stroke-linejoin:round; stroke-width:4; stroke-opacity:1; fill:none" points="
  140.696,214.963 167.24,214.963 
  "/>
<path clip-path="url(#clip190)" d="M92.7512 1433.67 Q89.1401 1433.67 87.3114 1437.24 Q85.5058 1440.78 85.5058 1447.91 Q85.5058 1455.01 87.3114 1458.58 Q89.1401 1462.12 92.7512 1462.12 Q96.3854 1462.12 98.1909 1458.58 Q100.02 1455.01 100.02 1447.91 Q100.02 1440.78 98.1909 1437.24 Q96.3854 1433.67 92.7512 1433.67 M92.7512 1429.97 Q98.5613 1429.97 101.617 1434.57 Q104.696 1439.16 104.696 1447.91 Q104.696 1456.63 101.617 1461.24 Q98.5613 1465.82 92.7512 1465.82 Q86.941 1465.82 83.8623 1461.24 Q80.8068 1456.63 80.8068 1447.91 Q80.8068 1439.16 83.8623 1434.57 Q86.941 1429.97 92.7512 1429.97 Z" fill="#000000" fill-rule="evenodd" fill-opacity="1" /><path clip-path="url(#clip190)" d="M83.7929 1122.37 L102.149 1122.37 L102.149 1126.3 L88.0753 1126.3 L88.0753 1134.77 Q89.0938 1134.43 90.1123 1134.26 Q91.1308 1134.08 92.1493 1134.08 Q97.9363 1134.08 101.316 1137.25 Q104.696 1140.42 104.696 1145.84 Q104.696 1151.42 101.223 1154.52 Q97.7511 1157.6 91.4317 1157.6 Q89.2558 1157.6 86.9873 1157.23 Q84.7419 1156.86 82.3346 1156.12 L82.3346 1151.42 Q84.4179 1152.55 86.6401 1153.11 Q88.8623 1153.66 91.3391 1153.66 Q95.3437 1153.66 97.6817 1151.56 Q100.02 1149.45 100.02 1145.84 Q100.02 1142.23 97.6817 1140.12 Q95.3437 1138.01 91.3391 1138.01 Q89.4641 1138.01 87.5892 1138.43 Q85.7373 1138.85 83.7929 1139.73 L83.7929 1122.37 Z" fill="#000000" fill-rule="evenodd" fill-opacity="1" /><path clip-path="url(#clip190)" d="M53.3995 844.763 L61.0384 844.763 L61.0384 818.397 L52.7282 820.064 L52.7282 815.805 L60.9921 814.138 L65.668 814.138 L65.668 844.763 L73.3068 844.763 L73.3068 848.698 L53.3995 848.698 L53.3995 844.763 Z" fill="#000000" fill-rule="evenodd" fill-opacity="1" /><path clip-path="url(#clip190)" d="M92.7512 817.217 Q89.1401 817.217 87.3114 820.782 Q85.5058 824.323 85.5058 831.453 Q85.5058 838.559 87.3114 842.124 Q89.1401 845.666 92.7512 845.666 Q96.3854 845.666 98.1909 842.124 Q100.02 838.559 100.02 831.453 Q100.02 824.323 98.1909 820.782 Q96.3854 817.217 92.7512 817.217 M92.7512 813.513 Q98.5613 813.513 101.617 818.12 Q104.696 822.703 104.696 831.453 Q104.696 840.18 101.617 844.786 Q98.5613 849.369 92.7512 849.369 Q86.941 849.369 83.8623 844.786 Q80.8068 840.18 80.8068 831.453 Q80.8068 822.703 83.8623 818.12 Q86.941 813.513 92.7512 813.513 Z" fill="#000000" fill-rule="evenodd" fill-opacity="1" /><path clip-path="url(#clip190)" d="M54.3949 536.535 L62.0337 536.535 L62.0337 510.17 L53.7236 511.837 L53.7236 507.577 L61.9874 505.911 L66.6633 505.911 L66.6633 536.535 L74.3022 536.535 L74.3022 540.471 L54.3949 540.471 L54.3949 536.535 Z" fill="#000000" fill-rule="evenodd" fill-opacity="1" /><path clip-path="url(#clip190)" d="M83.7929 505.911 L102.149 505.911 L102.149 509.846 L88.0753 509.846 L88.0753 518.318 Q89.0938 517.971 90.1123 517.809 Q91.1308 517.624 92.1493 517.624 Q97.9363 517.624 101.316 520.795 Q104.696 523.966 104.696 529.383 Q104.696 534.961 101.223 538.063 Q97.7511 541.142 91.4317 541.142 Q89.2558 541.142 86.9873 540.772 Q84.7419 540.401 82.3346 539.66 L82.3346 534.961 Q84.4179 536.096 86.6401 536.651 Q88.8623 537.207 91.3391 537.207 Q95.3437 537.207 97.6817 535.1 Q100.02 532.994 100.02 529.383 Q100.02 525.772 97.6817 523.665 Q95.3437 521.559 91.3391 521.559 Q89.4641 521.559 87.5892 521.975 Q85.7373 522.392 83.7929 523.272 L83.7929 505.911 Z" fill="#000000" fill-rule="evenodd" fill-opacity="1" /><path clip-path="url(#clip190)" d="M56.6171 228.308 L72.9365 228.308 L72.9365 232.243 L50.9921 232.243 L50.9921 228.308 Q53.6541 225.553 58.2375 220.924 Q62.8439 216.271 64.0245 214.928 Q66.2698 212.405 67.1494 210.669 Q68.0522 208.91 68.0522 207.22 Q68.0522 204.466 66.1078 202.729 Q64.1865 200.993 61.0847 200.993 Q58.8856 200.993 56.4319 201.757 Q54.0014 202.521 51.2236 204.072 L51.2236 199.35 Q54.0477 198.216 56.5014 197.637 Q58.955 197.058 60.9921 197.058 Q66.3624 197.058 69.5568 199.743 Q72.7513 202.429 72.7513 206.919 Q72.7513 209.049 71.9411 210.97 Q71.1541 212.868 69.0476 215.461 Q68.4689 216.132 65.367 219.35 Q62.2652 222.544 56.6171 228.308 Z" fill="#000000" fill-rule="evenodd" fill-opacity="1" /><path clip-path="url(#clip190)" d="M92.7512 200.762 Q89.1401 200.762 87.3114 204.327 Q85.5058 207.868 85.5058 214.998 Q85.5058 222.104 87.3114 225.669 Q89.1401 229.211 92.7512 229.211 Q96.3854 229.211 98.1909 225.669 Q100.02 222.104 100.02 214.998 Q100.02 207.868 98.1909 204.327 Q96.3854 200.762 92.7512 200.762 M92.7512 197.058 Q98.5613 197.058 101.617 201.665 Q104.696 206.248 104.696 214.998 Q104.696 223.725 101.617 228.331 Q98.5613 232.914 92.7512 232.914 Q86.941 232.914 83.8623 228.331 Q80.8068 223.725 80.8068 214.998 Q80.8068 206.248 83.8623 201.665 Q86.941 197.058 92.7512 197.058 Z" fill="#000000" fill-rule="evenodd" fill-opacity="1" /><path clip-path="url(#clip190)" d="M1089.35 12.096 L1124.1 12.096 L1124.1 18.9825 L1097.53 18.9825 L1097.53 36.8065 L1121.51 36.8065 L1121.51 43.6931 L1097.53 43.6931 L1097.53 72.576 L1089.35 72.576 L1089.35 12.096 Z" fill="#000000" fill-rule="evenodd" fill-opacity="1" /><path clip-path="url(#clip190)" d="M1149.75 49.7694 Q1140.71 49.7694 1137.23 51.8354 Q1133.75 53.9013 1133.75 58.8839 Q1133.75 62.8538 1136.34 65.2034 Q1138.97 67.5124 1143.47 67.5124 Q1149.67 67.5124 1153.39 63.1374 Q1157.16 58.7219 1157.16 51.4303 L1157.16 49.7694 L1149.75 49.7694 M1164.61 46.6907 L1164.61 72.576 L1157.16 72.576 L1157.16 65.6895 Q1154.61 69.8214 1150.8 71.8063 Q1146.99 73.7508 1141.48 73.7508 Q1134.52 73.7508 1130.38 69.8619 Q1126.29 65.9325 1126.29 59.3701 Q1126.29 51.7138 1131.4 47.825 Q1136.54 43.9361 1146.71 43.9361 L1157.16 43.9361 L1157.16 43.2069 Q1157.16 38.0623 1153.76 35.2672 Q1150.4 32.4315 1144.28 32.4315 Q1140.39 32.4315 1136.7 33.3632 Q1133.02 34.295 1129.61 36.1584 L1129.61 29.2718 Q1133.71 27.692 1137.55 26.9223 Q1141.4 26.1121 1145.05 26.1121 Q1154.89 26.1121 1159.75 31.2163 Q1164.61 36.3204 1164.61 46.6907 Z" fill="#000000" fill-rule="evenodd" fill-opacity="1" /><path clip-path="url(#clip190)" d="M1187.34 14.324 L1187.34 27.2059 L1202.69 27.2059 L1202.69 32.9987 L1187.34 32.9987 L1187.34 57.6282 Q1187.34 63.1779 1188.84 64.7578 Q1190.38 66.3376 1195.04 66.3376 L1202.69 66.3376 L1202.69 72.576 L1195.04 72.576 Q1186.41 72.576 1183.13 69.3758 Q1179.85 66.1351 1179.85 57.6282 L1179.85 32.9987 L1174.38 32.9987 L1174.38 27.2059 L1179.85 27.2059 L1179.85 14.324 L1187.34 14.324 Z" fill="#000000" fill-rule="evenodd" fill-opacity="1" /><path clip-path="url(#clip190)" d="M1230.81 12.096 L1281.97 12.096 L1281.97 18.9825 L1260.5 18.9825 L1260.5 72.576 L1252.28 72.576 L1252.28 18.9825 L1230.81 18.9825 L1230.81 12.096 Z" fill="#000000" fill-rule="evenodd" fill-opacity="1" /><path clip-path="url(#clip190)" d="M1296.43 49.7694 Q1287.4 49.7694 1283.91 51.8354 Q1280.43 53.9013 1280.43 58.8839 Q1280.43 62.8538 1283.02 65.2034 Q1285.65 67.5124 1290.15 67.5124 Q1296.35 67.5124 1300.08 63.1374 Q1303.84 58.7219 1303.84 51.4303 L1303.84 49.7694 L1296.43 49.7694 M1311.3 46.6907 L1311.3 72.576 L1303.84 72.576 L1303.84 65.6895 Q1301.29 69.8214 1297.48 71.8063 Q1293.68 73.7508 1288.17 73.7508 Q1281.2 73.7508 1277.07 69.8619 Q1272.98 65.9325 1272.98 59.3701 Q1272.98 51.7138 1278.08 47.825 Q1283.22 43.9361 1293.39 43.9361 L1303.84 43.9361 L1303.84 43.2069 Q1303.84 38.0623 1300.44 35.2672 Q1297.08 32.4315 1290.96 32.4315 Q1287.07 32.4315 1283.39 33.3632 Q1279.7 34.295 1276.3 36.1584 L1276.3 29.2718 Q1280.39 27.692 1284.24 26.9223 Q1288.09 26.1121 1291.73 26.1121 Q1301.57 26.1121 1306.44 31.2163 Q1311.3 36.3204 1311.3 46.6907 Z" fill="#000000" fill-rule="evenodd" fill-opacity="1" /><path clip-path="url(#clip190)" d="M1326.65 27.2059 L1334.1 27.2059 L1334.1 72.576 L1326.65 72.576 L1326.65 27.2059 M1326.65 9.54393 L1334.1 9.54393 L1334.1 18.9825 L1326.65 18.9825 L1326.65 9.54393 Z" fill="#000000" fill-rule="evenodd" fill-opacity="1" /><path clip-path="url(#clip190)" d="M1349.7 9.54393 L1357.15 9.54393 L1357.15 72.576 L1349.7 72.576 L1349.7 9.54393 Z" fill="#000000" fill-rule="evenodd" fill-opacity="1" /><path clip-path="url(#clip190)" d="M1401.67 28.5427 L1401.67 35.5912 Q1398.51 33.9709 1395.11 33.1607 Q1391.71 32.3505 1388.06 32.3505 Q1382.51 32.3505 1379.72 34.0519 Q1376.96 35.7533 1376.96 39.156 Q1376.96 41.7486 1378.95 43.2475 Q1380.93 44.7058 1386.93 46.0426 L1389.48 46.6097 Q1397.42 48.3111 1400.74 51.4303 Q1404.1 54.509 1404.1 60.0587 Q1404.1 66.3781 1399.08 70.0644 Q1394.1 73.7508 1385.35 73.7508 Q1381.7 73.7508 1377.73 73.0216 Q1373.8 72.3329 1369.43 70.9151 L1369.43 63.2184 Q1373.56 65.3654 1377.57 66.4591 Q1381.58 67.5124 1385.51 67.5124 Q1390.78 67.5124 1393.61 65.73 Q1396.45 63.9071 1396.45 60.6258 Q1396.45 57.5877 1394.38 55.9673 Q1392.36 54.3469 1385.43 52.8481 L1382.84 52.2405 Q1375.91 50.7821 1372.83 47.7845 Q1369.75 44.7463 1369.75 39.4801 Q1369.75 33.0797 1374.29 29.5959 Q1378.83 26.1121 1387.17 26.1121 Q1391.3 26.1121 1394.95 26.7198 Q1398.59 27.3274 1401.67 28.5427 Z" fill="#000000" fill-rule="evenodd" fill-opacity="1" /><polyline clip-path="url(#clip192)" style="stroke:#009af9; stroke-linecap:butt; stroke-linejoin:round; stroke-width:4; stroke-opacity:1; fill:none" points="
  203.301,1447.87 204.32,1447.87 205.34,1447.87 206.359,1447.87 207.379,1447.87 208.398,1447.87 209.418,1447.87 210.437,1447.86 211.457,1447.86 212.476,1447.85 
  213.496,1447.84 214.515,1447.83 215.535,1447.81 216.554,1447.79 217.574,1447.76 218.593,1447.72 219.612,1447.68 220.632,1447.63 221.651,1447.57 222.671,1447.51 
  223.69,1447.44 224.71,1447.37 225.729,1447.3 226.749,1447.23 227.768,1447.17 228.788,1447.12 229.807,1447.09 230.827,1447.07 231.846,1447.06 232.866,1447.07 
  233.885,1447.1 234.905,1447.15 235.924,1447.2 236.943,1447.26 237.963,1447.33 238.982,1447.4 240.002,1447.47 241.021,1447.54 242.041,1447.6 243.06,1447.65 
  244.08,1447.7 245.099,1447.74 246.119,1447.77 247.138,1447.8 248.158,1447.82 249.177,1447.84 250.197,1447.85 251.216,1447.86 252.235,1447.86 253.255,1447.87 
  254.274,1447.87 255.294,1447.87 256.313,1447.87 257.333,1447.87 258.352,1447.87 259.372,1447.87 260.391,1447.87 261.411,1447.87 262.43,1447.87 263.45,1447.87 
  264.469,1447.87 265.489,1447.87 266.508,1447.87 267.527,1447.87 268.547,1447.87 269.566,1447.87 270.586,1447.87 271.605,1447.87 272.625,1447.87 273.644,1447.87 
  274.664,1447.87 275.683,1447.87 276.703,1447.87 277.722,1447.87 278.742,1447.87 279.761,1447.87 280.781,1447.87 281.8,1447.87 282.819,1447.87 283.839,1447.87 
  284.858,1447.87 285.878,1447.87 286.897,1447.87 287.917,1447.87 288.936,1447.87 289.956,1447.87 290.975,1447.87 291.995,1447.87 293.014,1447.87 294.034,1447.87 
  295.053,1447.87 296.073,1447.87 297.092,1447.87 298.111,1447.87 299.131,1447.87 300.15,1447.87 301.17,1447.87 302.189,1447.87 303.209,1447.87 304.228,1447.87 
  305.248,1447.87 306.267,1447.87 307.287,1447.87 308.306,1447.87 309.326,1447.87 310.345,1447.87 311.365,1447.87 312.384,1447.87 313.403,1447.87 314.423,1447.87 
  315.442,1447.87 316.462,1447.87 317.481,1447.87 318.501,1447.87 319.52,1447.87 320.54,1447.87 321.559,1447.87 322.579,1447.87 323.598,1447.87 324.618,1447.87 
  325.637,1447.87 326.657,1447.87 327.676,1447.87 328.695,1447.87 329.715,1447.87 330.734,1447.87 331.754,1447.87 332.773,1447.87 333.793,1447.87 334.812,1447.87 
  335.832,1447.87 336.851,1447.87 337.871,1447.87 338.89,1447.87 339.91,1447.87 340.929,1447.87 341.949,1447.87 342.968,1447.87 343.988,1447.87 345.007,1447.87 
  346.026,1447.87 347.046,1447.87 348.065,1447.87 349.085,1447.87 350.104,1447.87 351.124,1447.87 352.143,1447.87 353.163,1447.87 354.182,1447.87 355.202,1447.87 
  356.221,1447.87 357.241,1447.87 358.26,1447.87 359.28,1447.87 360.299,1447.87 361.318,1447.87 362.338,1447.87 363.357,1447.87 364.377,1447.87 365.396,1447.87 
  366.416,1447.87 367.435,1447.87 368.455,1447.87 369.474,1447.87 370.494,1447.87 371.513,1447.87 372.533,1447.87 373.552,1447.87 374.572,1447.87 375.591,1447.87 
  376.61,1447.87 377.63,1447.87 378.649,1447.87 379.669,1447.87 380.688,1447.87 381.708,1447.87 382.727,1447.87 383.747,1447.87 384.766,1447.87 385.786,1447.87 
  386.805,1447.87 387.825,1447.87 388.844,1447.87 389.864,1447.87 390.883,1447.87 391.902,1447.87 392.922,1447.87 393.941,1447.87 394.961,1447.87 395.98,1447.87 
  397,1447.87 398.019,1447.87 399.039,1447.87 400.058,1447.87 401.078,1447.87 402.097,1447.87 403.117,1447.87 404.136,1447.87 405.156,1447.87 406.175,1447.87 
  407.194,1447.87 408.214,1447.87 409.233,1447.87 410.253,1447.87 411.272,1447.87 412.292,1447.87 413.311,1447.87 414.331,1447.87 415.35,1447.87 416.37,1447.87 
  417.389,1447.87 418.409,1447.87 419.428,1447.87 420.448,1447.87 421.467,1447.87 422.486,1447.87 423.506,1447.87 424.525,1447.87 425.545,1447.87 426.564,1447.87 
  427.584,1447.87 428.603,1447.87 429.623,1447.87 430.642,1447.87 431.662,1447.87 432.681,1447.87 433.701,1447.87 434.72,1447.87 435.74,1447.87 436.759,1447.87 
  437.778,1447.87 438.798,1447.87 439.817,1447.87 440.837,1447.87 441.856,1447.87 442.876,1447.87 443.895,1447.87 444.915,1447.87 445.934,1447.87 446.954,1447.87 
  447.973,1447.87 448.993,1447.87 450.012,1447.87 451.032,1447.87 452.051,1447.87 453.07,1447.87 454.09,1447.87 455.109,1447.87 456.129,1447.87 457.148,1447.87 
  458.168,1447.87 459.187,1447.87 460.207,1447.87 461.226,1447.87 462.246,1447.87 463.265,1447.87 464.285,1447.87 465.304,1447.87 466.324,1447.87 467.343,1447.87 
  468.363,1447.87 469.382,1447.87 470.401,1447.87 471.421,1447.87 472.44,1447.87 473.46,1447.87 474.479,1447.87 475.499,1447.87 476.518,1447.87 477.538,1447.87 
  478.557,1447.87 479.577,1447.87 480.596,1447.87 481.616,1447.87 482.635,1447.87 483.655,1447.87 484.674,1447.87 485.693,1447.87 486.713,1447.87 487.732,1447.87 
  488.752,1447.87 489.771,1447.87 490.791,1447.87 491.81,1447.87 492.83,1447.87 493.849,1447.87 494.869,1447.87 495.888,1447.87 496.908,1447.87 497.927,1447.87 
  498.947,1447.87 499.966,1447.87 500.985,1447.87 502.005,1447.87 503.024,1447.87 504.044,1447.87 505.063,1447.87 506.083,1447.87 507.102,1447.87 508.122,1447.87 
  509.141,1447.87 510.161,1447.87 511.18,1447.87 512.2,1447.87 513.219,1447.87 514.239,1447.87 515.258,1447.87 516.277,1447.87 517.297,1447.87 518.316,1447.87 
  519.336,1447.87 520.355,1447.87 521.375,1447.87 522.394,1447.87 523.414,1447.87 524.433,1447.87 525.453,1447.87 526.472,1447.87 527.492,1447.87 528.511,1447.87 
  529.531,1447.87 530.55,1447.87 531.569,1447.87 532.589,1447.87 533.608,1447.87 534.628,1447.87 535.647,1447.87 536.667,1447.87 537.686,1447.87 538.706,1447.87 
  539.725,1447.87 540.745,1447.87 541.764,1447.87 542.784,1447.87 543.803,1447.87 544.823,1447.87 545.842,1447.87 546.861,1447.87 547.881,1447.87 548.9,1447.87 
  549.92,1447.87 550.939,1447.87 551.959,1447.87 552.978,1447.87 553.998,1447.87 555.017,1447.87 556.037,1447.87 557.056,1447.87 558.076,1447.87 559.095,1447.87 
  560.115,1447.87 561.134,1447.87 562.153,1447.87 563.173,1447.87 564.192,1447.87 565.212,1447.87 566.231,1447.87 567.251,1447.87 568.27,1447.87 569.29,1447.87 
  570.309,1447.87 571.329,1447.87 572.348,1447.87 573.368,1447.87 574.387,1447.87 575.407,1447.87 576.426,1447.87 577.445,1447.87 578.465,1447.87 579.484,1447.87 
  580.504,1447.87 581.523,1447.87 582.543,1447.87 583.562,1447.87 584.582,1447.87 585.601,1447.87 586.621,1447.87 587.64,1447.87 588.66,1447.87 589.679,1447.87 
  590.699,1447.87 591.718,1447.87 592.738,1447.87 593.757,1447.87 594.776,1447.87 595.796,1447.87 596.815,1447.87 597.835,1447.87 598.854,1447.87 599.874,1447.87 
  600.893,1447.87 601.913,1447.87 602.932,1447.87 603.952,1447.87 604.971,1447.87 605.991,1447.87 607.01,1447.87 608.03,1447.87 609.049,1447.87 610.068,1447.87 
  611.088,1447.87 612.107,1447.87 613.127,1447.87 614.146,1447.87 615.166,1447.87 616.185,1447.87 617.205,1447.87 618.224,1447.87 619.244,1447.87 620.263,1447.87 
  621.283,1447.87 622.302,1447.87 623.322,1447.87 624.341,1447.87 625.36,1447.87 626.38,1447.87 627.399,1447.87 628.419,1447.87 629.438,1447.87 630.458,1447.87 
  631.477,1447.87 632.497,1447.87 633.516,1447.87 634.536,1447.87 635.555,1447.87 636.575,1447.87 637.594,1447.87 638.614,1447.87 639.633,1447.87 640.652,1447.87 
  641.672,1447.87 642.691,1447.87 643.711,1447.87 644.73,1447.87 645.75,1447.87 646.769,1447.87 647.789,1447.87 648.808,1447.87 649.828,1447.87 650.847,1447.87 
  651.867,1447.87 652.886,1447.87 653.906,1447.87 654.925,1447.87 655.944,1447.87 656.964,1447.87 657.983,1447.87 659.003,1447.87 660.022,1447.87 661.042,1447.87 
  662.061,1447.87 663.081,1447.87 664.1,1447.87 665.12,1447.87 666.139,1447.87 667.159,1447.87 668.178,1447.87 669.198,1447.87 670.217,1447.87 671.236,1447.87 
  672.256,1447.87 673.275,1447.87 674.295,1447.87 675.314,1447.87 676.334,1447.87 677.353,1447.87 678.373,1447.87 679.392,1447.87 680.412,1447.87 681.431,1447.87 
  682.451,1447.87 683.47,1447.87 684.49,1447.87 685.509,1447.87 686.528,1447.87 687.548,1447.87 688.567,1447.87 689.587,1447.87 690.606,1447.87 691.626,1447.87 
  692.645,1447.87 693.665,1447.87 694.684,1447.87 695.704,1447.87 696.723,1447.87 697.743,1447.87 698.762,1447.87 699.782,1447.87 700.801,1447.87 701.82,1447.87 
  702.84,1447.87 703.859,1447.87 704.879,1447.87 705.898,1447.87 706.918,1447.87 707.937,1447.87 708.957,1447.87 709.976,1447.87 710.996,1447.87 712.015,1447.87 
  713.035,1447.87 714.054,1447.87 715.074,1447.87 716.093,1447.87 717.113,1447.87 718.132,1447.87 719.151,1447.87 720.171,1447.87 721.19,1447.87 722.21,1447.87 
  723.229,1447.87 724.249,1447.87 725.268,1447.87 726.288,1447.87 727.307,1447.87 728.327,1447.87 729.346,1447.87 730.366,1447.87 731.385,1447.87 732.405,1447.87 
  733.424,1447.87 734.443,1447.87 735.463,1447.87 736.482,1447.87 737.502,1447.87 738.521,1447.87 739.541,1447.87 740.56,1447.87 741.58,1447.87 742.599,1447.87 
  743.619,1447.87 744.638,1447.87 745.658,1447.87 746.677,1447.87 747.697,1447.87 748.716,1447.87 749.735,1447.87 750.755,1447.87 751.774,1447.87 752.794,1447.87 
  753.813,1447.87 754.833,1447.87 755.852,1447.87 756.872,1447.87 757.891,1447.87 758.911,1447.87 759.93,1447.87 760.95,1447.87 761.969,1447.87 762.989,1447.87 
  764.008,1447.87 765.027,1447.87 766.047,1447.87 767.066,1447.87 768.086,1447.87 769.105,1447.87 770.125,1447.87 771.144,1447.87 772.164,1447.87 773.183,1447.87 
  774.203,1447.87 775.222,1447.87 776.242,1447.87 777.261,1447.87 778.281,1447.87 779.3,1447.87 780.319,1447.87 781.339,1447.87 782.358,1447.87 783.378,1447.87 
  784.397,1447.87 785.417,1447.87 786.436,1447.87 787.456,1447.87 788.475,1447.87 789.495,1447.87 790.514,1447.87 791.534,1447.87 792.553,1447.87 793.573,1447.87 
  794.592,1447.87 795.611,1447.87 796.631,1447.87 797.65,1447.87 798.67,1447.87 799.689,1447.87 800.709,1447.87 801.728,1447.87 802.748,1447.87 803.767,1447.87 
  804.787,1447.87 805.806,1447.87 806.826,1447.87 807.845,1447.87 808.865,1447.87 809.884,1447.87 810.903,1447.87 811.923,1447.87 812.942,1447.87 813.962,1447.87 
  814.981,1447.87 816.001,1447.87 817.02,1447.87 818.04,1447.87 819.059,1447.87 820.079,1447.87 821.098,1447.87 822.118,1447.87 823.137,1447.87 824.157,1447.87 
  825.176,1447.87 826.195,1447.87 827.215,1447.87 828.234,1447.87 829.254,1447.87 830.273,1447.87 831.293,1447.87 832.312,1447.87 833.332,1447.87 834.351,1447.87 
  835.371,1447.87 836.39,1447.87 837.41,1447.87 838.429,1447.87 839.449,1447.87 840.468,1447.87 841.488,1447.87 842.507,1447.86 843.526,1447.86 844.546,1447.85 
  845.565,1447.84 846.585,1447.83 847.604,1447.81 848.624,1447.78 849.643,1447.75 850.663,1447.71 851.682,1447.67 852.702,1447.62 853.721,1447.56 854.741,1447.49 
  855.76,1447.42 856.78,1447.35 857.799,1447.28 858.818,1447.22 859.838,1447.16 860.857,1447.11 861.877,1447.08 862.896,1447.06 863.916,1447.06 864.935,1447.08 
  865.955,1447.1 866.974,1447.15 867.994,1447.2 869.013,1447.25 870.033,1447.31 871.052,1447.37 872.072,1447.42 873.091,1447.46 874.11,1447.49 875.13,1447.51 
  876.149,1447.51 877.169,1447.5 878.188,1447.47 879.208,1447.43 880.227,1447.39 881.247,1447.33 882.266,1447.27 883.286,1447.21 884.305,1447.16 885.325,1447.11 
  886.344,1447.08 887.364,1447.06 888.383,1447.06 889.402,1447.07 890.422,1447.1 891.441,1447.15 892.461,1447.2 893.48,1447.26 894.5,1447.33 895.519,1447.4 
  896.539,1447.47 897.558,1447.53 898.578,1447.59 899.597,1447.63 900.617,1447.67 901.636,1447.7 902.656,1447.71 903.675,1447.71 904.694,1447.7 905.714,1447.68 
  906.733,1447.64 907.753,1447.6 908.772,1447.55 909.792,1447.49 910.811,1447.42 911.831,1447.35 912.85,1447.28 913.87,1447.22 914.889,1447.16 915.909,1447.11 
  916.928,1447.08 917.948,1447.06 918.967,1447.06 919.986,1447.08 921.006,1447.11 922.025,1447.16 923.045,1447.21 924.064,1447.28 925.084,1447.34 926.103,1447.42 
  927.123,1447.48 928.142,1447.55 929.162,1447.61 930.181,1447.66 931.201,1447.71 932.22,1447.75 933.24,1447.78 934.259,1447.8 935.278,1447.82 936.298,1447.84 
  937.317,1447.85 938.337,1447.86 939.356,1447.86 940.376,1447.86 941.395,1447.87 942.415,1447.87 943.434,1447.86 944.454,1447.86 945.473,1447.85 946.493,1447.85 
  947.512,1447.83 948.532,1447.82 949.551,1447.8 950.57,1447.77 951.59,1447.74 952.609,1447.7 953.629,1447.65 954.648,1447.6 955.668,1447.53 956.687,1447.47 
  957.707,1447.4 958.726,1447.33 959.746,1447.26 960.765,1447.2 961.785,1447.14 962.804,1447.1 963.824,1447.07 964.843,1447.06 965.863,1447.07 966.882,1447.09 
  967.901,1447.12 968.921,1447.17 969.94,1447.23 970.96,1447.3 971.979,1447.37 972.999,1447.44 974.018,1447.51 975.038,1447.57 976.057,1447.63 977.077,1447.68 
  978.096,1447.72 979.116,1447.76 980.135,1447.79 981.155,1447.81 982.174,1447.83 983.193,1447.84 984.213,1447.85 985.232,1447.86 986.252,1447.86 987.271,1447.87 
  988.291,1447.87 989.31,1447.87 990.33,1447.87 991.349,1447.87 992.369,1447.87 993.388,1447.87 994.408,1447.87 995.427,1447.87 996.447,1447.87 997.466,1447.87 
  998.485,1447.87 999.505,1447.87 1000.52,1447.87 1001.54,1447.87 1002.56,1447.87 1003.58,1447.87 1004.6,1447.87 1005.62,1447.87 1006.64,1447.87 1007.66,1447.87 
  1008.68,1447.87 1009.7,1447.87 1010.72,1447.87 1011.74,1447.87 1012.76,1447.87 1013.78,1447.87 1014.8,1447.87 1015.82,1447.87 1016.84,1447.87 1017.86,1447.87 
  1018.87,1447.87 1019.89,1447.86 1020.91,1447.86 1021.93,1447.85 1022.95,1447.84 1023.97,1447.82 1024.99,1447.8 1026.01,1447.77 1027.03,1447.73 1028.05,1447.68 
  1029.07,1447.61 1030.09,1447.54 1031.11,1447.45 1032.13,1447.34 1033.15,1447.22 1034.17,1447.09 1035.19,1446.96 1036.21,1446.82 1037.23,1446.68 1038.24,1446.56 
  1039.26,1446.44 1040.28,1446.35 1041.3,1446.28 1042.32,1446.23 1043.34,1446.22 1044.36,1446.23 1045.38,1446.26 1046.4,1446.31 1047.42,1446.38 1048.44,1446.45 
  1049.46,1446.53 1050.48,1446.6 1051.5,1446.67 1052.52,1446.73 1053.54,1446.77 1054.56,1446.81 1055.58,1446.84 1056.6,1446.87 1057.61,1446.9 1058.63,1446.92 
  1059.65,1446.96 1060.67,1447 1061.69,1447.05 1062.71,1447.11 1063.73,1447.18 1064.75,1447.25 1065.77,1447.32 1066.79,1447.39 1067.81,1447.46 1068.83,1447.53 
  1069.85,1447.59 1070.87,1447.64 1071.89,1447.69 1072.91,1447.72 1073.93,1447.74 1074.95,1447.75 1075.96,1447.76 1076.98,1447.75 1078,1447.73 1079.02,1447.7 
  1080.04,1447.66 1081.06,1447.61 1082.08,1447.56 1083.1,1447.5 1084.12,1447.43 1085.14,1447.36 1086.16,1447.29 1087.18,1447.22 1088.2,1447.16 1089.22,1447.11 
  1090.24,1447.07 1091.26,1447.04 1092.28,1447.02 1093.3,1447.02 1094.32,1447.03 1095.33,1447.04 1096.35,1447.05 1097.37,1447.07 1098.39,1447.07 1099.41,1447.07 
  1100.43,1447.05 1101.45,1447.01 1102.47,1446.95 1103.49,1446.88 1104.51,1446.8 1105.53,1446.71 1106.55,1446.61 1107.57,1446.52 1108.59,1446.43 1109.61,1446.36 
  1110.63,1446.31 1111.65,1446.28 1112.67,1446.28 1113.69,1446.31 1114.7,1446.36 1115.72,1446.43 1116.74,1446.52 1117.76,1446.61 1118.78,1446.71 1119.8,1446.81 
  1120.82,1446.9 1121.84,1446.97 1122.86,1447.03 1123.88,1447.07 1124.9,1447.09 1125.92,1447.1 1126.94,1447.1 1127.96,1447.08 1128.98,1447.06 1130,1447.04 
  1131.02,1447.03 1132.04,1447.02 1133.06,1447.02 1134.07,1447.03 1135.09,1447.05 1136.11,1447.08 1137.13,1447.12 1138.15,1447.16 1139.17,1447.19 1140.19,1447.22 
  1141.21,1447.23 1142.23,1447.23 1143.25,1447.21 1144.27,1447.17 1145.29,1447.1 1146.31,1447.02 1147.33,1446.91 1148.35,1446.79 1149.37,1446.65 1150.39,1446.5 
  1151.41,1446.35 1152.43,1446.19 1153.44,1446.04 1154.46,1445.89 1155.48,1445.75 1156.5,1445.62 1157.52,1445.51 1158.54,1445.4 1159.56,1445.31 1160.58,1445.23 
  1161.6,1445.16 1162.62,1445.09 1163.64,1445.03 1164.66,1444.96 1165.68,1444.9 1166.7,1444.84 1167.72,1444.78 1168.74,1444.72 1169.76,1444.68 1170.78,1444.65 
  1171.79,1444.65 1172.81,1444.66 1173.83,1444.71 1174.85,1444.79 1175.87,1444.89 1176.89,1445.02 1177.91,1445.18 1178.93,1445.36 1179.95,1445.56 1180.97,1445.76 
  1181.99,1445.98 1183.01,1446.19 1184.03,1446.39 1185.05,1446.59 1186.07,1446.77 1187.09,1446.93 1188.11,1447.08 1189.13,1447.2 1190.15,1447.3 1191.16,1447.38 
  1192.18,1447.43 1193.2,1447.46 1194.22,1447.47 1195.24,1447.45 1196.26,1447.41 1197.28,1447.35 1198.3,1447.27 1199.32,1447.17 1200.34,1447.05 1201.36,1446.91 
  1202.38,1446.76 1203.4,1446.59 1204.42,1446.4 1205.44,1446.2 1206.46,1445.99 1207.48,1445.77 1208.5,1445.53 1209.52,1445.29 1210.53,1445.04 1211.55,1444.79 
  1212.57,1444.53 1213.59,1444.26 1214.61,1444 1215.63,1443.73 1216.65,1443.46 1217.67,1443.18 1218.69,1442.9 1219.71,1442.61 1220.73,1442.32 1221.75,1442.02 
  1222.77,1441.73 1223.79,1441.44 1224.81,1441.17 1225.83,1440.93 1226.85,1440.72 1227.87,1440.56 1228.89,1440.46 1229.9,1440.43 1230.92,1440.46 1231.94,1440.57 
  1232.96,1440.74 1233.98,1440.96 1235,1441.22 1236.02,1441.5 1237.04,1441.78 1238.06,1442.05 1239.08,1442.27 1240.1,1442.44 1241.12,1442.55 1242.14,1442.58 
  1243.16,1442.52 1244.18,1442.39 1245.2,1442.19 1246.22,1441.92 1247.24,1441.6 1248.25,1441.24 1249.27,1440.85 1250.29,1440.44 1251.31,1440.02 1252.33,1439.6 
  1253.35,1439.18 1254.37,1438.76 1255.39,1438.35 1256.41,1437.94 1257.43,1437.53 1258.45,1437.12 1259.47,1436.7 1260.49,1436.26 1261.51,1435.8 1262.53,1435.32 
  1263.55,1434.8 1264.57,1434.24 1265.59,1433.64 1266.61,1432.98 1267.62,1432.27 1268.64,1431.5 1269.66,1430.67 1270.68,1429.79 1271.7,1428.86 1272.72,1427.89 
  1273.74,1426.89 1274.76,1425.88 1275.78,1424.89 1276.8,1423.94 1277.82,1423.05 1278.84,1422.25 1279.86,1421.55 1280.88,1420.98 1281.9,1420.54 1282.92,1420.23 
  1283.94,1420.04 1284.96,1419.96 1285.98,1419.95 1286.99,1419.98 1288.01,1420.01 1289.03,1420.01 1290.05,1419.92 1291.07,1419.74 1292.09,1419.43 1293.11,1418.99 
  1294.13,1418.43 1295.15,1417.75 1296.17,1417 1297.19,1416.19 1298.21,1415.39 1299.23,1414.61 1300.25,1413.89 1301.27,1413.25 1302.29,1412.71 1303.31,1412.25 
  1304.33,1411.87 1305.35,1411.53 1306.36,1411.2 1307.38,1410.83 1308.4,1410.39 1309.42,1409.84 1310.44,1409.16 1311.46,1408.31 1312.48,1407.31 1313.5,1406.13 
  1314.52,1404.8 1315.54,1403.32 1316.56,1401.71 1317.58,1399.97 1318.6,1398.13 1319.62,1396.19 1320.64,1394.15 1321.66,1392.03 1322.68,1389.83 1323.7,1387.56 
  1324.71,1385.24 1325.73,1382.89 1326.75,1380.54 1327.77,1378.21 1328.79,1375.96 1329.81,1373.8 1330.83,1371.79 1331.85,1369.94 1332.87,1368.28 1333.89,1366.83 
  1334.91,1365.58 1335.93,1364.52 1336.95,1363.64 1337.97,1362.9 1338.99,1362.27 1340.01,1361.72 1341.03,1361.2 1342.05,1360.68 1343.07,1360.11 1344.08,1359.46 
  1345.1,1358.68 1346.12,1357.74 1347.14,1356.6 1348.16,1355.22 1349.18,1353.57 1350.2,1351.62 1351.22,1349.33 1352.24,1346.68 1353.26,1343.67 1354.28,1340.29 
  1355.3,1336.54 1356.32,1332.44 1357.34,1328.02 1358.36,1323.32 1359.38,1318.37 1360.4,1313.25 1361.42,1308 1362.44,1302.69 1363.45,1297.38 1364.47,1292.15 
  1365.49,1287.03 1366.51,1282.08 1367.53,1277.33 1368.55,1272.78 1369.57,1268.44 1370.59,1264.27 1371.61,1260.25 1372.63,1256.33 1373.65,1252.46 1374.67,1248.59 
  1375.69,1244.67 1376.71,1240.67 1377.73,1236.57 1378.75,1232.37 1379.77,1228.05 1380.79,1223.65 1381.81,1219.15 1382.82,1214.58 1383.84,1209.92 1384.86,1205.16 
  1385.88,1200.27 1386.9,1195.2 1387.92,1189.88 1388.94,1184.24 1389.96,1178.21 1390.98,1171.7 1392,1164.65 1393.02,1156.99 1394.04,1148.67 1395.06,1139.66 
  1396.08,1129.93 1397.1,1119.5 1398.12,1108.37 1399.14,1096.6 1400.16,1084.23 1401.18,1071.33 1402.19,1058 1403.21,1044.33 1404.23,1030.46 1405.25,1016.5 
  1406.27,1002.59 1407.29,988.858 1408.31,975.42 1409.33,962.381 1410.35,949.82 1411.37,937.785 1412.39,926.29 1413.41,915.313 1414.43,904.799 1415.45,894.662 
  1416.47,884.796 1417.49,875.081 1418.51,865.391 1419.53,855.605 1420.54,845.611 1421.56,835.312 1422.58,824.629 1423.6,813.504 1424.62,801.894 1425.64,789.776 
  1426.66,777.139 1427.68,763.987 1428.7,750.335 1429.72,736.209 1430.74,721.641 1431.76,706.673 1432.78,691.349 1433.8,675.715 1434.82,659.814 1435.84,643.684 
  1436.86,627.352 1437.88,610.831 1438.9,594.121 1439.91,577.21 1440.93,560.076 1441.95,542.692 1442.97,525.04 1443.99,507.111 1445.01,488.922 1446.03,470.518 
  1447.05,451.975 1448.07,433.397 1449.09,414.913 1450.11,396.661 1451.13,378.772 1452.15,361.354 1453.17,344.478 1454.19,328.164 1455.21,312.381 1456.23,297.057 
  1457.25,282.092 1458.27,267.39 1459.28,252.886 1460.3,238.586 1461.32,224.588 1462.34,211.098 1463.36,198.432 1464.38,186.988 1465.4,177.218 1466.42,169.566 
  1467.44,164.419 1468.46,162.047 1469.48,162.562 1470.5,165.894 1471.52,171.798 1472.54,179.869 1473.56,189.602 1474.58,200.443 1475.6,211.863 1476.62,223.413 
  1477.64,234.772 1478.65,245.773 1479.67,256.407 1480.69,266.803 1481.71,277.192 1482.73,287.86 1483.75,299.098 1484.77,311.156 1485.79,324.209 1486.81,338.334 
  1487.83,353.506 1488.85,369.604 1489.87,386.432 1490.89,403.748 1491.91,421.292 1492.93,438.816 1493.95,456.11 1494.97,473.017 1495.99,489.439 1497,505.347 
  1498.02,520.765 1499.04,535.763 1500.06,550.444 1501.08,564.924 1502.1,579.323 1503.12,593.751 1504.14,608.302 1505.16,623.047 1506.18,638.039 1507.2,653.312 
  1508.22,668.884 1509.24,684.764 1510.26,700.949 1511.28,717.43 1512.3,734.186 1513.32,751.183 1514.34,768.372 1515.36,785.683 1516.37,803.027 1517.39,820.298 
  1518.41,837.376 1519.43,854.134 1520.45,870.448 1521.47,886.206 1522.49,901.317 1523.51,915.716 1524.53,929.372 1525.55,942.289 1526.57,954.499 1527.59,966.065 
  1528.61,977.071 1529.63,987.614 1530.65,997.799 1531.67,1007.73 1532.69,1017.49 1533.71,1027.18 1534.73,1036.85 1535.74,1046.54 1536.76,1056.29 1537.78,1066.08 
  1538.8,1075.92 1539.82,1085.76 1540.84,1095.56 1541.86,1105.26 1542.88,1114.79 1543.9,1124.08 1544.92,1133.07 1545.94,1141.68 1546.96,1149.86 1547.98,1157.53 
  1549,1164.67 1550.02,1171.24 1551.04,1177.24 1552.06,1182.67 1553.08,1187.56 1554.1,1191.97 1555.11,1195.96 1556.13,1199.62 1557.15,1203.06 1558.17,1206.38 
  1559.19,1209.68 1560.21,1213.09 1561.23,1216.67 1562.25,1220.51 1563.27,1224.65 1564.29,1229.1 1565.31,1233.86 1566.33,1238.88 1567.35,1244.09 1568.37,1249.42 
  1569.39,1254.76 1570.41,1260.02 1571.43,1265.1 1572.45,1269.92 1573.46,1274.41 1574.48,1278.53 1575.5,1282.26 1576.52,1285.6 1577.54,1288.58 1578.56,1291.24 
  1579.58,1293.64 1580.6,1295.86 1581.62,1297.95 1582.64,1300 1583.66,1302.06 1584.68,1304.2 1585.7,1306.45 1586.72,1308.86 1587.74,1311.44 1588.76,1314.2 
  1589.78,1317.14 1590.8,1320.26 1591.82,1323.51 1592.83,1326.88 1593.85,1330.31 1594.87,1333.76 1595.89,1337.18 1596.91,1340.52 1597.93,1343.73 1598.95,1346.78 
  1599.97,1349.62 1600.99,1352.24 1602.01,1354.63 1603.03,1356.79 1604.05,1358.74 1605.07,1360.49 1606.09,1362.07 1607.11,1363.52 1608.13,1364.87 1609.15,1366.15 
  1610.17,1367.4 1611.19,1368.63 1612.2,1369.87 1613.22,1371.13 1614.24,1372.41 1615.26,1373.73 1616.28,1375.08 1617.3,1376.46 1618.32,1377.87 1619.34,1379.3 
  1620.36,1380.75 1621.38,1382.22 1622.4,1383.7 1623.42,1385.19 1624.44,1386.7 1625.46,1388.21 1626.48,1389.73 1627.5,1391.27 1628.52,1392.81 1629.54,1394.38 
  1630.56,1395.96 1631.57,1397.56 1632.59,1399.18 1633.61,1400.83 1634.63,1402.51 1635.65,1404.2 1636.67,1405.92 1637.69,1407.64 1638.71,1409.35 1639.73,1411.03 
  1640.75,1412.67 1641.77,1414.24 1642.79,1415.72 1643.81,1417.09 1644.83,1418.33 1645.85,1419.43 1646.87,1420.39 1647.89,1421.19 1648.91,1421.86 1649.93,1422.4 
  1650.94,1422.83 1651.96,1423.17 1652.98,1423.44 1654,1423.68 1655.02,1423.89 1656.04,1424.11 1657.06,1424.34 1658.08,1424.6 1659.1,1424.89 1660.12,1425.21 
  1661.14,1425.57 1662.16,1425.96 1663.18,1426.36 1664.2,1426.77 1665.22,1427.16 1666.24,1427.53 1667.26,1427.87 1668.28,1428.14 1669.29,1428.34 1670.31,1428.46 
  1671.33,1428.49 1672.35,1428.44 1673.37,1428.3 1674.39,1428.09 1675.41,1427.82 1676.43,1427.53 1677.45,1427.24 1678.47,1426.98 1679.49,1426.77 1680.51,1426.65 
  1681.53,1426.63 1682.55,1426.73 1683.57,1426.97 1684.59,1427.32 1685.61,1427.79 1686.63,1428.36 1687.65,1429.01 1688.66,1429.71 1689.68,1430.43 1690.7,1431.17 
  1691.72,1431.89 1692.74,1432.58 1693.76,1433.22 1694.78,1433.82 1695.8,1434.36 1696.82,1434.86 1697.84,1435.31 1698.86,1435.72 1699.88,1436.1 1700.9,1436.45 
  1701.92,1436.8 1702.94,1437.13 1703.96,1437.46 1704.98,1437.78 1706,1438.11 1707.02,1438.43 1708.03,1438.75 1709.05,1439.05 1710.07,1439.34 1711.09,1439.6 
  1712.11,1439.83 1713.13,1440.02 1714.15,1440.17 1715.17,1440.26 1716.19,1440.3 1717.21,1440.29 1718.23,1440.22 1719.25,1440.1 1720.27,1439.94 1721.29,1439.74 
  1722.31,1439.52 1723.33,1439.27 1724.35,1439.02 1725.37,1438.77 1726.39,1438.54 1727.4,1438.34 1728.42,1438.18 1729.44,1438.07 1730.46,1438.02 1731.48,1438.04 
  1732.5,1438.12 1733.52,1438.27 1734.54,1438.48 1735.56,1438.75 1736.58,1439.07 1737.6,1439.41 1738.62,1439.78 1739.64,1440.15 1740.66,1440.51 1741.68,1440.85 
  1742.7,1441.17 1743.72,1441.45 1744.74,1441.7 1745.75,1441.93 1746.77,1442.12 1747.79,1442.31 1748.81,1442.48 1749.83,1442.65 1750.85,1442.83 1751.87,1443.02 
  1752.89,1443.23 1753.91,1443.45 1754.93,1443.68 1755.95,1443.92 1756.97,1444.17 1757.99,1444.41 1759.01,1444.63 1760.03,1444.85 1761.05,1445.05 1762.07,1445.22 
  1763.09,1445.37 1764.11,1445.49 1765.12,1445.6 1766.14,1445.67 1767.16,1445.73 1768.18,1445.77 1769.2,1445.79 1770.22,1445.8 1771.24,1445.79 1772.26,1445.77 
  1773.28,1445.74 1774.3,1445.7 1775.32,1445.65 1776.34,1445.59 1777.36,1445.52 1778.38,1445.45 1779.4,1445.37 1780.42,1445.28 1781.44,1445.2 1782.46,1445.12 
  1783.48,1445.04 1784.49,1444.96 1785.51,1444.89 1786.53,1444.84 1787.55,1444.79 1788.57,1444.75 1789.59,1444.72 1790.61,1444.7 1791.63,1444.69 1792.65,1444.68 
  1793.67,1444.68 1794.69,1444.69 1795.71,1444.7 1796.73,1444.72 1797.75,1444.74 1798.77,1444.77 1799.79,1444.81 1800.81,1444.86 1801.83,1444.92 1802.85,1444.99 
  1803.86,1445.07 1804.88,1445.16 1805.9,1445.25 1806.92,1445.35 1807.94,1445.45 1808.96,1445.55 1809.98,1445.65 1811,1445.76 1812.02,1445.86 1813.04,1445.96 
  1814.06,1446.06 1815.08,1446.16 1816.1,1446.27 1817.12,1446.38 1818.14,1446.5 1819.16,1446.61 1820.18,1446.73 1821.2,1446.85 1822.21,1446.97 1823.23,1447.09 
  1824.25,1447.2 1825.27,1447.3 1826.29,1447.4 1827.31,1447.49 1828.33,1447.56 1829.35,1447.63 1830.37,1447.68 1831.39,1447.73 1832.41,1447.77 1833.43,1447.79 
  1834.45,1447.82 1835.47,1447.83 1836.49,1447.85 1837.51,1447.85 1838.53,1447.86 1839.55,1447.87 1840.57,1447.87 1841.58,1447.87 1842.6,1447.87 1843.62,1447.87 
  1844.64,1447.87 1845.66,1447.87 1846.68,1447.87 1847.7,1447.87 1848.72,1447.87 1849.74,1447.87 1850.76,1447.87 1851.78,1447.87 1852.8,1447.87 1853.82,1447.87 
  1854.84,1447.87 1855.86,1447.87 1856.88,1447.87 1857.9,1447.87 1858.92,1447.87 1859.94,1447.87 1860.95,1447.87 1861.97,1447.87 1862.99,1447.86 1864.01,1447.86 
  1865.03,1447.85 1866.05,1447.84 1867.07,1447.83 1868.09,1447.81 1869.11,1447.78 1870.13,1447.75 1871.15,1447.71 1872.17,1447.67 1873.19,1447.62 1874.21,1447.55 
  1875.23,1447.49 1876.25,1447.41 1877.27,1447.34 1878.29,1447.26 1879.31,1447.18 1880.32,1447.1 1881.34,1447.03 1882.36,1446.97 1883.38,1446.92 1884.4,1446.87 
  1885.42,1446.83 1886.44,1446.81 1887.46,1446.79 1888.48,1446.77 1889.5,1446.77 1890.52,1446.77 1891.54,1446.77 1892.56,1446.78 1893.58,1446.8 1894.6,1446.82 
  1895.62,1446.85 1896.64,1446.89 1897.66,1446.94 1898.68,1447 1899.69,1447.07 1900.71,1447.14 1901.73,1447.21 1902.75,1447.28 1903.77,1447.34 1904.79,1447.4 
  1905.81,1447.45 1906.83,1447.48 1907.85,1447.5 1908.87,1447.51 1909.89,1447.49 1910.91,1447.46 1911.93,1447.41 1912.95,1447.35 1913.97,1447.27 1914.99,1447.19 
  1916.01,1447.09 1917.03,1447 1918.04,1446.9 1919.06,1446.81 1920.08,1446.72 1921.1,1446.65 1922.12,1446.58 1923.14,1446.54 1924.16,1446.51 1925.18,1446.5 
  1926.2,1446.51 1927.22,1446.54 1928.24,1446.58 1929.26,1446.64 1930.28,1446.72 1931.3,1446.8 1932.32,1446.9 1933.34,1447 1934.36,1447.1 1935.38,1447.2 
  1936.4,1447.3 1937.41,1447.39 1938.43,1447.48 1939.45,1447.55 1940.47,1447.62 1941.49,1447.67 1942.51,1447.72 1943.53,1447.76 1944.55,1447.79 1945.57,1447.81 
  1946.59,1447.83 1947.61,1447.84 1948.63,1447.85 1949.65,1447.86 1950.67,1447.86 1951.69,1447.87 1952.71,1447.87 1953.73,1447.87 1954.75,1447.87 1955.77,1447.87 
  1956.78,1447.87 1957.8,1447.87 1958.82,1447.87 1959.84,1447.87 1960.86,1447.87 1961.88,1447.87 1962.9,1447.87 1963.92,1447.87 1964.94,1447.87 1965.96,1447.87 
  1966.98,1447.87 1968,1447.87 1969.02,1447.87 1970.04,1447.87 1971.06,1447.87 1972.08,1447.87 1973.1,1447.87 1974.12,1447.87 1975.14,1447.87 1976.15,1447.87 
  1977.17,1447.87 1978.19,1447.87 1979.21,1447.87 1980.23,1447.87 1981.25,1447.87 1982.27,1447.87 1983.29,1447.87 1984.31,1447.87 1985.33,1447.87 1986.35,1447.87 
  1987.37,1447.87 1988.39,1447.87 1989.41,1447.87 1990.43,1447.87 1991.45,1447.87 1992.47,1447.87 1993.49,1447.87 1994.5,1447.87 1995.52,1447.87 1996.54,1447.87 
  1997.56,1447.87 1998.58,1447.87 1999.6,1447.87 2000.62,1447.87 2001.64,1447.87 2002.66,1447.87 2003.68,1447.87 2004.7,1447.87 2005.72,1447.87 2006.74,1447.87 
  2007.76,1447.87 2008.78,1447.87 2009.8,1447.87 2010.82,1447.87 2011.84,1447.87 2012.86,1447.86 2013.87,1447.86 2014.89,1447.85 2015.91,1447.84 2016.93,1447.82 
  2017.95,1447.8 2018.97,1447.77 2019.99,1447.73 2021.01,1447.68 2022.03,1447.62 2023.05,1447.55 2024.07,1447.46 2025.09,1447.35 2026.11,1447.23 2027.13,1447.11 
  2028.15,1446.97 2029.17,1446.84 2030.19,1446.7 2031.21,1446.58 2032.23,1446.47 2033.24,1446.38 2034.26,1446.31 2035.28,1446.28 2036.3,1446.28 2037.32,1446.31 
  2038.34,1446.37 2039.36,1446.45 2040.38,1446.56 2041.4,1446.68 2042.42,1446.82 2043.44,1446.96 2044.46,1447.09 2045.48,1447.22 2046.5,1447.34 2047.52,1447.44 
  2048.54,1447.53 2049.56,1447.61 2050.58,1447.68 2051.6,1447.73 2052.61,1447.77 2053.63,1447.8 2054.65,1447.82 2055.67,1447.84 2056.69,1447.85 2057.71,1447.86 
  2058.73,1447.86 2059.75,1447.87 2060.77,1447.87 2061.79,1447.87 2062.81,1447.87 2063.83,1447.87 2064.85,1447.87 2065.87,1447.87 2066.89,1447.87 2067.91,1447.87 
  2068.93,1447.87 2069.95,1447.87 2070.96,1447.87 2071.98,1447.87 2073,1447.87 2074.02,1447.87 2075.04,1447.87 2076.06,1447.87 2077.08,1447.87 2078.1,1447.87 
  2079.12,1447.87 2080.14,1447.87 2081.16,1447.87 2082.18,1447.87 2083.2,1447.87 2084.22,1447.87 2085.24,1447.87 2086.26,1447.87 2087.28,1447.87 2088.3,1447.87 
  2089.32,1447.87 2090.33,1447.87 2091.35,1447.87 2092.37,1447.87 2093.39,1447.87 2094.41,1447.87 2095.43,1447.87 2096.45,1447.87 2097.47,1447.87 2098.49,1447.87 
  2099.51,1447.87 2100.53,1447.87 2101.55,1447.87 2102.57,1447.87 2103.59,1447.87 2104.61,1447.87 2105.63,1447.87 2106.65,1447.87 2107.67,1447.87 2108.69,1447.87 
  2109.7,1447.87 2110.72,1447.87 2111.74,1447.87 2112.76,1447.87 2113.78,1447.87 2114.8,1447.87 2115.82,1447.87 2116.84,1447.87 2117.86,1447.87 2118.88,1447.87 
  2119.9,1447.87 2120.92,1447.87 2121.94,1447.87 2122.96,1447.87 2123.98,1447.87 2125,1447.87 2126.02,1447.87 2127.04,1447.87 2128.06,1447.87 2129.07,1447.87 
  2130.09,1447.87 2131.11,1447.87 2132.13,1447.87 2133.15,1447.87 2134.17,1447.87 2135.19,1447.87 2136.21,1447.87 2137.23,1447.87 2138.25,1447.87 2139.27,1447.87 
  2140.29,1447.87 2141.31,1447.87 2142.33,1447.87 2143.35,1447.87 2144.37,1447.87 2145.39,1447.87 2146.41,1447.87 2147.43,1447.87 2148.44,1447.87 2149.46,1447.87 
  2150.48,1447.87 2151.5,1447.87 2152.52,1447.87 2153.54,1447.87 2154.56,1447.87 2155.58,1447.87 2156.6,1447.87 2157.62,1447.87 2158.64,1447.87 2159.66,1447.87 
  2160.68,1447.87 2161.7,1447.87 2162.72,1447.87 2163.74,1447.87 2164.76,1447.87 2165.78,1447.87 2166.79,1447.87 2167.81,1447.87 2168.83,1447.87 2169.85,1447.87 
  2170.87,1447.87 2171.89,1447.87 2172.91,1447.87 2173.93,1447.87 2174.95,1447.87 2175.97,1447.87 2176.99,1447.87 2178.01,1447.87 2179.03,1447.87 2180.05,1447.87 
  2181.07,1447.87 2182.09,1447.87 2183.11,1447.87 2184.13,1447.87 2185.15,1447.87 2186.16,1447.87 2187.18,1447.87 2188.2,1447.87 2189.22,1447.87 2190.24,1447.87 
  2191.26,1447.87 2192.28,1447.87 2193.3,1447.87 2194.32,1447.87 2195.34,1447.87 2196.36,1447.87 2197.38,1447.87 2198.4,1447.87 2199.42,1447.87 2200.44,1447.87 
  2201.46,1447.87 2202.48,1447.87 2203.5,1447.87 2204.52,1447.87 2205.53,1447.87 2206.55,1447.87 2207.57,1447.87 2208.59,1447.87 2209.61,1447.87 2210.63,1447.87 
  2211.65,1447.87 2212.67,1447.87 2213.69,1447.87 2214.71,1447.87 2215.73,1447.87 2216.75,1447.87 2217.77,1447.87 2218.79,1447.87 2219.81,1447.87 2220.83,1447.87 
  2221.85,1447.87 2222.87,1447.87 2223.89,1447.87 2224.9,1447.87 2225.92,1447.87 2226.94,1447.87 2227.96,1447.87 2228.98,1447.87 2230,1447.87 2231.02,1447.87 
  2232.04,1447.87 2233.06,1447.87 2234.08,1447.87 2235.1,1447.87 2236.12,1447.87 2237.14,1447.87 2238.16,1447.87 2239.18,1447.87 2240.2,1447.87 2241.22,1447.86 
  2242.24,1447.86 2243.25,1447.85 2244.27,1447.84 2245.29,1447.82 2246.31,1447.8 2247.33,1447.77 2248.35,1447.74 2249.37,1447.7 2250.39,1447.65 2251.41,1447.6 
  2252.43,1447.54 2253.45,1447.47 2254.47,1447.4 2255.49,1447.33 2256.51,1447.26 2257.53,1447.2 2258.55,1447.15 2259.57,1447.1 2260.59,1447.07 2261.61,1447.06 
  2262.62,1447.07 2263.64,1447.09 2264.66,1447.12 2265.68,1447.17 2266.7,1447.23 2267.72,1447.3 2268.74,1447.37 2269.76,1447.44 2270.78,1447.51 2271.8,1447.57 
  2272.82,1447.63 2273.84,1447.68 2274.86,1447.72 2275.88,1447.76 2276.9,1447.79 2277.92,1447.81 2278.94,1447.83 2279.96,1447.84 2280.98,1447.85 2281.99,1447.86 
  2283.01,1447.86 2284.03,1447.87 2285.05,1447.87 2286.07,1447.87 2287.09,1447.87 2288.11,1447.87 2289.13,1447.87 2290.15,1447.87 
  "/>
<polyline clip-path="url(#clip192)" style="stroke:#e26f46; stroke-linecap:butt; stroke-linejoin:round; stroke-width:4; stroke-opacity:1; fill:none" points="
  1218.33,1447.02 1220.8,1446.9 1223.28,1446.76 1246.16,1444.28 1269.05,1437.56 1282.8,1429.45 1296.55,1416.28 1308.18,1399.59 1319.8,1376.2 1326.12,1360.13 
  1332.43,1341.36 1338.75,1319.7 1345.07,1294.94 1350.89,1269.26 1356.71,1240.79 1362.53,1209.53 1368.35,1175.55 1380.84,1094.27 1393.32,1003.87 1407.78,893.631 
  1422.25,786.499 1428.67,742.74 1435.1,702.744 1441.53,667.452 1447.95,637.728 1453.59,616.837 1459.23,601.22 1464.86,591.189 1470.5,586.948 1476.64,589.02 
  1482.79,598.026 1488.93,613.748 1495.08,635.808 1501.26,663.868 1507.44,697.162 1513.62,734.931 1519.8,776.349 1533.47,876.527 1547.13,980.929 1560.14,1076.63 
  1573.14,1163.27 1579.9,1203.54 1586.66,1240.16 1593.42,1273.03 1600.19,1302.14 1611.57,1342.97 1622.95,1374.44 1636.85,1402.13 1650.74,1420.54 1663.81,1431.65 
  1676.87,1438.6 1697.8,1444.36 1718.72,1446.66 1721.95,1446.86 1725.17,1447.02 
  "/>
<path clip-path="url(#clip190)" d="
M1695.07 350.345 L2279.02 350.345 L2279.02 168.905 L1695.07 168.905  Z
  " fill="#ffffff" fill-rule="evenodd" fill-opacity="1"/>
<polyline clip-path="url(#clip190)" style="stroke:#000000; stroke-linecap:butt; stroke-linejoin:round; stroke-width:4; stroke-opacity:1; fill:none" points="
  1695.07,350.345 2279.02,350.345 2279.02,168.905 1695.07,168.905 1695.07,350.345 
  "/>
<polyline clip-path="url(#clip190)" style="stroke:#009af9; stroke-linecap:butt; stroke-linejoin:round; stroke-width:4; stroke-opacity:1; fill:none" points="
  1719.65,229.385 1867.12,229.385 
  "/>
<path clip-path="url(#clip190)" d="M1891.69 212.105 L1896.37 212.105 L1896.37 226.711 L1911.88 212.105 L1917.9 212.105 L1900.75 228.216 L1919.12 246.665 L1912.97 246.665 L1896.37 230.021 L1896.37 246.665 L1891.69 246.665 L1891.69 212.105 Z" fill="#000000" fill-rule="evenodd" fill-opacity="1" /><path clip-path="url(#clip190)" d="M1942.41 232.637 L1942.41 234.72 L1922.83 234.72 Q1923.11 239.118 1925.47 241.433 Q1927.85 243.725 1932.09 243.725 Q1934.54 243.725 1936.83 243.123 Q1939.15 242.521 1941.42 241.317 L1941.42 245.345 Q1939.12 246.317 1936.72 246.827 Q1934.31 247.336 1931.83 247.336 Q1925.63 247.336 1921.99 243.725 Q1918.38 240.114 1918.38 233.956 Q1918.38 227.591 1921.81 223.864 Q1925.26 220.114 1931.09 220.114 Q1936.32 220.114 1939.36 223.493 Q1942.41 226.85 1942.41 232.637 M1938.15 231.387 Q1938.11 227.892 1936.18 225.808 Q1934.29 223.725 1931.14 223.725 Q1927.57 223.725 1925.42 225.739 Q1923.29 227.753 1922.97 231.41 L1938.15 231.387 Z" fill="#000000" fill-rule="evenodd" fill-opacity="1" /><path clip-path="url(#clip190)" d="M1964.43 224.72 Q1963.71 224.304 1962.85 224.118 Q1962.02 223.91 1961 223.91 Q1957.39 223.91 1955.44 226.271 Q1953.52 228.609 1953.52 233.007 L1953.52 246.665 L1949.24 246.665 L1949.24 220.739 L1953.52 220.739 L1953.52 224.767 Q1954.87 222.406 1957.02 221.271 Q1959.17 220.114 1962.25 220.114 Q1962.69 220.114 1963.22 220.183 Q1963.75 220.23 1964.4 220.345 L1964.43 224.72 Z" fill="#000000" fill-rule="evenodd" fill-opacity="1" /><path clip-path="url(#clip190)" d="M1989.61 231.017 L1989.61 246.665 L1985.35 246.665 L1985.35 231.155 Q1985.35 227.475 1983.92 225.646 Q1982.48 223.818 1979.61 223.818 Q1976.16 223.818 1974.17 226.017 Q1972.18 228.216 1972.18 232.012 L1972.18 246.665 L1967.9 246.665 L1967.9 220.739 L1972.18 220.739 L1972.18 224.767 Q1973.71 222.429 1975.77 221.271 Q1977.85 220.114 1980.56 220.114 Q1985.03 220.114 1987.32 222.892 Q1989.61 225.646 1989.61 231.017 Z" fill="#000000" fill-rule="evenodd" fill-opacity="1" /><path clip-path="url(#clip190)" d="M2020.28 232.637 L2020.28 234.72 L2000.7 234.72 Q2000.98 239.118 2003.34 241.433 Q2005.72 243.725 2009.96 243.725 Q2012.41 243.725 2014.7 243.123 Q2017.02 242.521 2019.29 241.317 L2019.29 245.345 Q2016.99 246.317 2014.59 246.827 Q2012.18 247.336 2009.7 247.336 Q2003.5 247.336 1999.86 243.725 Q1996.25 240.114 1996.25 233.956 Q1996.25 227.591 1999.68 223.864 Q2003.13 220.114 2008.96 220.114 Q2014.19 220.114 2017.23 223.493 Q2020.28 226.85 2020.28 232.637 M2016.02 231.387 Q2015.98 227.892 2014.05 225.808 Q2012.16 223.725 2009.01 223.725 Q2005.44 223.725 2003.29 225.739 Q2001.16 227.753 2000.84 231.41 L2016.02 231.387 Z" fill="#000000" fill-rule="evenodd" fill-opacity="1" /><path clip-path="url(#clip190)" d="M2027.27 210.646 L2031.53 210.646 L2031.53 246.665 L2027.27 246.665 L2027.27 210.646 Z" fill="#000000" fill-rule="evenodd" fill-opacity="1" /><path clip-path="url(#clip190)" d="M2060.37 215.947 L2060.37 242.822 L2066.02 242.822 Q2073.17 242.822 2076.48 239.581 Q2079.82 236.341 2079.82 229.35 Q2079.82 222.406 2076.48 219.188 Q2073.17 215.947 2066.02 215.947 L2060.37 215.947 M2055.7 212.105 L2065.3 212.105 Q2075.35 212.105 2080.05 216.294 Q2084.75 220.461 2084.75 229.35 Q2084.75 238.285 2080.03 242.475 Q2075.3 246.665 2065.3 246.665 L2055.7 246.665 L2055.7 212.105 Z" fill="#000000" fill-rule="evenodd" fill-opacity="1" /><path clip-path="url(#clip190)" d="M2114.19 232.637 L2114.19 234.72 L2094.61 234.72 Q2094.89 239.118 2097.25 241.433 Q2099.63 243.725 2103.87 243.725 Q2106.32 243.725 2108.61 243.123 Q2110.93 242.521 2113.2 241.317 L2113.2 245.345 Q2110.91 246.317 2108.5 246.827 Q2106.09 247.336 2103.61 247.336 Q2097.41 247.336 2093.78 243.725 Q2090.17 240.114 2090.17 233.956 Q2090.17 227.591 2093.59 223.864 Q2097.04 220.114 2102.87 220.114 Q2108.11 220.114 2111.14 223.493 Q2114.19 226.85 2114.19 232.637 M2109.93 231.387 Q2109.89 227.892 2107.97 225.808 Q2106.07 223.725 2102.92 223.725 Q2099.36 223.725 2097.2 225.739 Q2095.07 227.753 2094.75 231.41 L2109.93 231.387 Z" fill="#000000" fill-rule="evenodd" fill-opacity="1" /><path clip-path="url(#clip190)" d="M2142.73 231.017 L2142.73 246.665 L2138.48 246.665 L2138.48 231.155 Q2138.48 227.475 2137.04 225.646 Q2135.6 223.818 2132.73 223.818 Q2129.29 223.818 2127.29 226.017 Q2125.3 228.216 2125.3 232.012 L2125.3 246.665 L2121.02 246.665 L2121.02 220.739 L2125.3 220.739 L2125.3 224.767 Q2126.83 222.429 2128.89 221.271 Q2130.98 220.114 2133.68 220.114 Q2138.15 220.114 2140.44 222.892 Q2142.73 225.646 2142.73 231.017 Z" fill="#000000" fill-rule="evenodd" fill-opacity="1" /><path clip-path="url(#clip190)" d="M2167.76 221.503 L2167.76 225.531 Q2165.95 224.605 2164.01 224.142 Q2162.06 223.679 2159.98 223.679 Q2156.81 223.679 2155.21 224.651 Q2153.64 225.623 2153.64 227.568 Q2153.64 229.049 2154.77 229.905 Q2155.91 230.739 2159.33 231.503 L2160.79 231.827 Q2165.33 232.799 2167.23 234.581 Q2169.15 236.341 2169.15 239.512 Q2169.15 243.123 2166.28 245.229 Q2163.43 247.336 2158.43 247.336 Q2156.35 247.336 2154.08 246.919 Q2151.83 246.526 2149.33 245.716 L2149.33 241.317 Q2151.69 242.544 2153.98 243.169 Q2156.28 243.771 2158.52 243.771 Q2161.53 243.771 2163.15 242.753 Q2164.77 241.711 2164.77 239.836 Q2164.77 238.1 2163.59 237.174 Q2162.43 236.248 2158.48 235.392 L2156.99 235.044 Q2153.04 234.211 2151.28 232.498 Q2149.52 230.762 2149.52 227.753 Q2149.52 224.095 2152.11 222.105 Q2154.7 220.114 2159.47 220.114 Q2161.83 220.114 2163.91 220.461 Q2166 220.808 2167.76 221.503 Z" fill="#000000" fill-rule="evenodd" fill-opacity="1" /><path clip-path="url(#clip190)" d="M2175.93 220.739 L2180.19 220.739 L2180.19 246.665 L2175.93 246.665 L2175.93 220.739 M2175.93 210.646 L2180.19 210.646 L2180.19 216.04 L2175.93 216.04 L2175.93 210.646 Z" fill="#000000" fill-rule="evenodd" fill-opacity="1" /><path clip-path="url(#clip190)" d="M2193.31 213.378 L2193.31 220.739 L2202.09 220.739 L2202.09 224.049 L2193.31 224.049 L2193.31 238.123 Q2193.31 241.294 2194.17 242.197 Q2195.05 243.1 2197.71 243.1 L2202.09 243.1 L2202.09 246.665 L2197.71 246.665 Q2192.78 246.665 2190.91 244.836 Q2189.03 242.984 2189.03 238.123 L2189.03 224.049 L2185.91 224.049 L2185.91 220.739 L2189.03 220.739 L2189.03 213.378 L2193.31 213.378 Z" fill="#000000" fill-rule="evenodd" fill-opacity="1" /><path clip-path="url(#clip190)" d="M2218.47 249.072 Q2216.67 253.702 2214.96 255.114 Q2213.24 256.526 2210.37 256.526 L2206.97 256.526 L2206.97 252.961 L2209.47 252.961 Q2211.23 252.961 2212.2 252.128 Q2213.17 251.294 2214.35 248.192 L2215.12 246.248 L2204.63 220.739 L2209.15 220.739 L2217.25 241.017 L2225.35 220.739 L2229.86 220.739 L2218.47 249.072 Z" fill="#000000" fill-rule="evenodd" fill-opacity="1" /><polyline clip-path="url(#clip190)" style="stroke:#e26f46; stroke-linecap:butt; stroke-linejoin:round; stroke-width:4; stroke-opacity:1; fill:none" points="
  1719.65,289.865 1867.12,289.865 
  "/>
<path clip-path="url(#clip190)" d="M1891.69 272.585 L1911.56 272.585 L1911.56 276.52 L1896.37 276.52 L1896.37 286.705 L1910.07 286.705 L1910.07 290.64 L1896.37 290.64 L1896.37 307.145 L1891.69 307.145 L1891.69 272.585 Z" fill="#000000" fill-rule="evenodd" fill-opacity="1" /><path clip-path="url(#clip190)" d="M1915.33 281.219 L1919.59 281.219 L1919.59 307.145 L1915.33 307.145 L1915.33 281.219 M1915.33 271.126 L1919.59 271.126 L1919.59 276.52 L1915.33 276.52 L1915.33 271.126 Z" fill="#000000" fill-rule="evenodd" fill-opacity="1" /><path clip-path="url(#clip190)" d="M1932.71 273.858 L1932.71 281.219 L1941.49 281.219 L1941.49 284.529 L1932.71 284.529 L1932.71 298.603 Q1932.71 301.774 1933.57 302.677 Q1934.45 303.58 1937.11 303.58 L1941.49 303.58 L1941.49 307.145 L1937.11 307.145 Q1932.18 307.145 1930.31 305.316 Q1928.43 303.464 1928.43 298.603 L1928.43 284.529 L1925.31 284.529 L1925.31 281.219 L1928.43 281.219 L1928.43 273.858 L1932.71 273.858 Z" fill="#000000" fill-rule="evenodd" fill-opacity="1" /><path clip-path="url(#clip190)" d="M1951.3 273.858 L1951.3 281.219 L1960.07 281.219 L1960.07 284.529 L1951.3 284.529 L1951.3 298.603 Q1951.3 301.774 1952.16 302.677 Q1953.04 303.58 1955.7 303.58 L1960.07 303.58 L1960.07 307.145 L1955.7 307.145 Q1950.77 307.145 1948.89 305.316 Q1947.02 303.464 1947.02 298.603 L1947.02 284.529 L1943.89 284.529 L1943.89 281.219 L1947.02 281.219 L1947.02 273.858 L1951.3 273.858 Z" fill="#000000" fill-rule="evenodd" fill-opacity="1" /><path clip-path="url(#clip190)" d="M1987.85 293.117 L1987.85 295.2 L1968.27 295.2 Q1968.55 299.598 1970.91 301.913 Q1973.29 304.205 1977.53 304.205 Q1979.98 304.205 1982.27 303.603 Q1984.59 303.001 1986.86 301.797 L1986.86 305.825 Q1984.56 306.797 1982.16 307.307 Q1979.75 307.816 1977.27 307.816 Q1971.07 307.816 1967.43 304.205 Q1963.82 300.594 1963.82 294.436 Q1963.82 288.071 1967.25 284.344 Q1970.7 280.594 1976.53 280.594 Q1981.76 280.594 1984.8 283.973 Q1987.85 287.33 1987.85 293.117 M1983.59 291.867 Q1983.55 288.372 1981.62 286.288 Q1979.73 284.205 1976.58 284.205 Q1973.01 284.205 1970.86 286.219 Q1968.73 288.233 1968.41 291.89 L1983.59 291.867 Z" fill="#000000" fill-rule="evenodd" fill-opacity="1" /><path clip-path="url(#clip190)" d="M2011.9 285.154 L2011.9 271.126 L2016.16 271.126 L2016.16 307.145 L2011.9 307.145 L2011.9 303.256 Q2010.56 305.571 2008.5 306.705 Q2006.46 307.816 2003.59 307.816 Q1998.89 307.816 1995.93 304.066 Q1992.99 300.316 1992.99 294.205 Q1992.99 288.094 1995.93 284.344 Q1998.89 280.594 2003.59 280.594 Q2006.46 280.594 2008.5 281.728 Q2010.56 282.839 2011.9 285.154 M1997.39 294.205 Q1997.39 298.904 1999.31 301.589 Q2001.25 304.251 2004.63 304.251 Q2008.01 304.251 2009.96 301.589 Q2011.9 298.904 2011.9 294.205 Q2011.9 289.506 2009.96 286.844 Q2008.01 284.159 2004.63 284.159 Q2001.25 284.159 1999.31 286.844 Q1997.39 289.506 1997.39 294.205 Z" fill="#000000" fill-rule="evenodd" fill-opacity="1" /><path clip-path="url(#clip190)" d="M2040.19 272.585 L2046.49 272.585 L2061.81 301.497 L2061.81 272.585 L2066.35 272.585 L2066.35 307.145 L2060.05 307.145 L2044.73 278.233 L2044.73 307.145 L2040.19 307.145 L2040.19 272.585 Z" fill="#000000" fill-rule="evenodd" fill-opacity="1" /><path clip-path="url(#clip190)" d="M2085.51 284.205 Q2082.09 284.205 2080.1 286.89 Q2078.11 289.552 2078.11 294.205 Q2078.11 298.858 2080.07 301.543 Q2082.06 304.205 2085.51 304.205 Q2088.92 304.205 2090.91 301.52 Q2092.9 298.835 2092.9 294.205 Q2092.9 289.598 2090.91 286.913 Q2088.92 284.205 2085.51 284.205 M2085.51 280.594 Q2091.07 280.594 2094.24 284.205 Q2097.41 287.816 2097.41 294.205 Q2097.41 300.571 2094.24 304.205 Q2091.07 307.816 2085.51 307.816 Q2079.93 307.816 2076.76 304.205 Q2073.61 300.571 2073.61 294.205 Q2073.61 287.816 2076.76 284.205 Q2079.93 280.594 2085.51 280.594 Z" fill="#000000" fill-rule="evenodd" fill-opacity="1" /><path clip-path="url(#clip190)" d="M2119.49 285.2 Q2118.78 284.784 2117.92 284.598 Q2117.09 284.39 2116.07 284.39 Q2112.46 284.39 2110.51 286.751 Q2108.59 289.089 2108.59 293.487 L2108.59 307.145 L2104.31 307.145 L2104.31 281.219 L2108.59 281.219 L2108.59 285.247 Q2109.93 282.886 2112.09 281.751 Q2114.24 280.594 2117.32 280.594 Q2117.76 280.594 2118.29 280.663 Q2118.82 280.71 2119.47 280.825 L2119.49 285.2 Z" fill="#000000" fill-rule="evenodd" fill-opacity="1" /><path clip-path="url(#clip190)" d="M2143.31 286.196 Q2144.91 283.325 2147.13 281.96 Q2149.35 280.594 2152.36 280.594 Q2156.41 280.594 2158.61 283.441 Q2160.81 286.265 2160.81 291.497 L2160.81 307.145 L2156.53 307.145 L2156.53 291.635 Q2156.53 287.909 2155.21 286.103 Q2153.89 284.298 2151.18 284.298 Q2147.87 284.298 2145.95 286.497 Q2144.03 288.696 2144.03 292.492 L2144.03 307.145 L2139.75 307.145 L2139.75 291.635 Q2139.75 287.885 2138.43 286.103 Q2137.11 284.298 2134.35 284.298 Q2131.09 284.298 2129.17 286.52 Q2127.25 288.719 2127.25 292.492 L2127.25 307.145 L2122.97 307.145 L2122.97 281.219 L2127.25 281.219 L2127.25 285.247 Q2128.71 282.862 2130.74 281.728 Q2132.78 280.594 2135.58 280.594 Q2138.41 280.594 2140.37 282.029 Q2142.36 283.464 2143.31 286.196 Z" fill="#000000" fill-rule="evenodd" fill-opacity="1" /><path clip-path="url(#clip190)" d="M2181.09 294.112 Q2175.93 294.112 2173.94 295.293 Q2171.95 296.473 2171.95 299.321 Q2171.95 301.589 2173.43 302.932 Q2174.93 304.251 2177.5 304.251 Q2181.04 304.251 2183.17 301.751 Q2185.33 299.228 2185.33 295.061 L2185.33 294.112 L2181.09 294.112 M2189.59 292.353 L2189.59 307.145 L2185.33 307.145 L2185.33 303.209 Q2183.87 305.571 2181.69 306.705 Q2179.52 307.816 2176.37 307.816 Q2172.39 307.816 2170.03 305.594 Q2167.69 303.348 2167.69 299.598 Q2167.69 295.223 2170.6 293.001 Q2173.54 290.779 2179.35 290.779 L2185.33 290.779 L2185.33 290.362 Q2185.33 287.423 2183.38 285.825 Q2181.46 284.205 2177.97 284.205 Q2175.74 284.205 2173.64 284.737 Q2171.53 285.27 2169.59 286.335 L2169.59 282.399 Q2171.92 281.497 2174.12 281.057 Q2176.32 280.594 2178.41 280.594 Q2184.03 280.594 2186.81 283.511 Q2189.59 286.427 2189.59 292.353 Z" fill="#000000" fill-rule="evenodd" fill-opacity="1" /><path clip-path="url(#clip190)" d="M2198.36 271.126 L2202.62 271.126 L2202.62 307.145 L2198.36 307.145 L2198.36 271.126 Z" fill="#000000" fill-rule="evenodd" fill-opacity="1" /></svg>
